<svg width="732" height="240" viewBox="0 0 732 240" fill="none" xmlns="http://www.w3.org/2000/svg">
<path d="M58.4784 85.48C58.4784 92.76 55.7984 98.68 50.4384 103.24C45.0784 107.72 37.9584 109.96 29.0784 109.96C19.5584 109.96 11.7984 108.28 5.79844 104.92V86.32C13.0784 91.6 20.8384 94.24 29.0784 94.24C31.8784 94.24 34.1984 93.52 36.0384 92.08C37.8784 90.56 38.7984 88.6 38.7984 86.2C38.7984 85.4 38.6784 84.64 38.4384 83.92C38.1984 83.2 37.7584 82.52 37.1184 81.88C36.4784 81.24 35.8384 80.72 35.1984 80.32C34.6384 79.84 33.7584 79.32 32.5584 78.76C31.4384 78.12 30.4784 77.6 29.6784 77.2C28.8784 76.8 27.6784 76.24 26.0784 75.52C24.5584 74.8 23.3184 74.24 22.3584 73.84C17.1584 71.44 12.9584 68.48 9.75844 64.96C6.63844 61.44 5.07844 56.76 5.07844 50.92C5.07844 43.96 7.63844 38.36 12.7584 34.12C17.8784 29.8 24.9584 27.64 33.9984 27.64C42.0784 27.64 49.0384 29 54.8784 31.72V49C48.3984 45.24 41.6784 43.36 34.7184 43.36C31.5984 43.36 29.1984 44 27.5184 45.28C25.9184 46.56 25.1184 48.2 25.1184 50.2C25.1184 52.2 26.1184 54 28.1184 55.6C30.1184 57.12 33.1184 58.76 37.1184 60.52C39.5984 61.64 41.6384 62.64 43.2384 63.52C44.9184 64.32 46.7984 65.48 48.8784 67C51.0384 68.44 52.7184 70 53.9184 71.68C55.1984 73.28 56.2784 75.28 57.1584 77.68C58.0384 80.08 58.4784 82.68 58.4784 85.48ZM114.719 106.12C109.999 108.68 104.319 109.96 97.6791 109.96C88.5591 109.96 81.0391 107.08 75.1191 101.32C69.1991 95.48 66.2391 87.96 66.2391 78.76C66.3991 69.64 69.3591 62.12 75.1191 56.2C80.8791 50.2 88.7591 47.2 98.7591 47.2C104.919 47.2 110.239 48.36 114.719 50.68V65.68C110.479 63.04 105.759 61.72 100.559 61.72C95.6791 61.72 91.7191 63.2 88.6791 66.16C85.6391 69.04 84.0791 73.24 83.9991 78.76C84.3191 84.12 85.9191 88.28 88.7991 91.24C91.6791 94.2 95.4791 95.68 100.199 95.68C105.239 95.68 110.079 94.28 114.719 91.48V106.12ZM181.289 109H163.769V73C163.769 69.48 162.889 66.72 161.129 64.72C159.369 62.72 157.089 61.72 154.289 61.72C153.089 61.72 151.929 61.92 150.809 62.32C149.769 62.64 148.609 63.28 147.329 64.24C146.049 65.12 145.009 66.68 144.209 68.92C143.409 71.08 143.009 73.72 143.009 76.84V109H125.489V24.16H143.009V58.48C146.129 51.2 152.209 47.56 161.249 47.56C167.169 47.56 171.969 49.44 175.649 53.2C179.409 56.96 181.289 62.64 181.289 70.24V109ZM242.858 105.52C238.698 108.24 232.338 109.6 223.778 109.6C213.778 109.6 205.978 106.72 200.378 100.96C194.858 95.12 192.098 87.64 192.098 78.52C192.098 68.84 194.778 61.28 200.138 55.84C205.578 50.32 212.258 47.56 220.178 47.56C228.338 47.56 234.778 49.96 239.498 54.76C244.218 59.48 246.578 66.56 246.578 76C246.578 77.84 246.258 81 245.618 85.48H209.858C211.058 88.84 213.138 91.44 216.098 93.28C219.058 95.12 222.618 96.04 226.778 96.04C232.938 96.04 238.298 94.32 242.858 90.88V105.52ZM220.898 60.88C218.098 60.88 215.618 61.92 213.458 64C211.298 66 209.858 69 209.138 73H230.258V71.56C229.698 64.44 226.578 60.88 220.898 60.88ZM273.843 78.76C273.843 83.64 275.123 87.6 277.683 90.64C280.243 93.6 283.363 95.08 287.043 95.08C291.043 95.08 294.283 93.52 296.763 90.4C299.243 87.28 300.483 83.12 300.483 77.92C300.483 72.88 299.123 68.96 296.403 66.16C293.763 63.36 290.603 61.96 286.923 61.96C283.243 61.96 280.123 63.44 277.563 66.4C275.083 69.36 273.843 73.48 273.843 78.76ZM318.003 109H300.483V99.52C296.403 106.32 290.323 109.72 282.243 109.72C274.323 109.72 267.963 106.64 263.163 100.48C258.443 94.32 256.083 86.96 256.083 78.4C256.083 68.8 258.563 61.24 263.523 55.72C268.483 50.2 274.763 47.44 282.363 47.44C290.283 47.44 296.323 50.8 300.483 57.52V24.16H318.003V109ZM387.642 109H370.122V99.28C366.922 106.08 360.762 109.48 351.642 109.48C345.402 109.48 340.522 107.76 337.002 104.32C333.562 100.8 331.842 95.64 331.842 88.84V48.16H349.362V84.88C349.362 92 352.482 95.56 358.722 95.56C366.322 95.56 370.122 90.48 370.122 80.32V48.16H387.642V109ZM420.172 109H402.652V24.16H420.172V109ZM482.976 105.52C478.816 108.24 472.456 109.6 463.896 109.6C453.896 109.6 446.096 106.72 440.496 100.96C434.976 95.12 432.216 87.64 432.216 78.52C432.216 68.84 434.896 61.28 440.256 55.84C445.696 50.32 452.376 47.56 460.296 47.56C468.456 47.56 474.896 49.96 479.616 54.76C484.336 59.48 486.696 66.56 486.696 76C486.696 77.84 486.376 81 485.736 85.48H449.976C451.176 88.84 453.256 91.44 456.216 93.28C459.176 95.12 462.736 96.04 466.896 96.04C473.056 96.04 478.416 94.32 482.976 90.88V105.52ZM461.016 60.88C458.216 60.88 455.736 61.92 453.576 64C451.416 66 449.976 69 449.256 73H470.376V71.56C469.816 64.44 466.696 60.88 461.016 60.88ZM298.713 181.48C298.713 188.76 296.033 194.68 290.673 199.24C285.313 203.72 278.193 205.96 269.313 205.96C259.793 205.96 252.033 204.28 246.033 200.92V182.32C253.313 187.6 261.073 190.24 269.313 190.24C272.113 190.24 274.433 189.52 276.273 188.08C278.113 186.56 279.033 184.6 279.033 182.2C279.033 181.4 278.913 180.64 278.673 179.92C278.433 179.2 277.993 178.52 277.353 177.88C276.713 177.24 276.073 176.72 275.433 176.32C274.873 175.84 273.993 175.32 272.793 174.76C271.673 174.12 270.713 173.6 269.913 173.2C269.113 172.8 267.913 172.24 266.313 171.52C264.793 170.8 263.553 170.24 262.593 169.84C257.393 167.44 253.193 164.48 249.993 160.96C246.873 157.44 245.313 152.76 245.313 146.92C245.313 139.96 247.873 134.36 252.993 130.12C258.113 125.8 265.193 123.64 274.233 123.64C282.313 123.64 289.273 125 295.113 127.72V145C288.633 141.24 281.913 139.36 274.953 139.36C271.833 139.36 269.433 140 267.753 141.28C266.153 142.56 265.353 144.2 265.353 146.2C265.353 148.2 266.353 150 268.353 151.6C270.353 153.12 273.353 154.76 277.353 156.52C279.833 157.64 281.873 158.64 283.473 159.52C285.153 160.32 287.033 161.48 289.113 163C291.273 164.44 292.953 166 294.153 167.68C295.433 169.28 296.513 171.28 297.393 173.68C298.273 176.08 298.713 178.68 298.713 181.48ZM343.553 203.2C337.233 220.24 327.593 228.76 314.633 228.76C312.153 228.76 309.913 228.56 307.913 228.16V214.24C309.193 214.56 310.553 214.72 311.993 214.72C318.633 214.72 323.433 211.16 326.393 204.04L302.873 144.16H321.953L328.553 163.12C330.233 168 331.593 172.2 332.633 175.72C333.753 179.24 334.433 181.56 334.673 182.68L335.033 184.36C335.913 181.16 338.073 174.08 341.513 163.12L347.513 144.16H365.513L343.553 203.2ZM429.141 205H411.621V168.76C411.621 165.16 410.781 162.44 409.101 160.6C407.421 158.68 405.061 157.72 402.021 157.72C398.821 157.72 396.141 159 393.981 161.56C391.901 164.04 390.861 167.8 390.861 172.84V205H373.341V144.16H390.861V154.48C392.381 151.12 394.701 148.48 397.821 146.56C401.021 144.56 404.821 143.56 409.221 143.56C415.461 143.56 420.341 145.44 423.861 149.2C427.381 152.88 429.141 158.32 429.141 165.52V205ZM488.43 202.12C483.71 204.68 478.03 205.96 471.39 205.96C462.27 205.96 454.75 203.08 448.83 197.32C442.91 191.48 439.95 183.96 439.95 174.76C440.11 165.64 443.07 158.12 448.83 152.2C454.59 146.2 462.47 143.2 472.47 143.2C478.63 143.2 483.95 144.36 488.43 146.68V161.68C484.19 159.04 479.47 157.72 474.27 157.72C469.39 157.72 465.43 159.2 462.39 162.16C459.35 165.04 457.79 169.24 457.71 174.76C458.03 180.12 459.63 184.28 462.51 187.24C465.39 190.2 469.19 191.68 473.91 191.68C478.95 191.68 483.79 190.28 488.43 187.48V202.12Z" fill="white"/>
<path d="M556.708 59.447C556.396 57.4456 553.893 56.1721 551.121 56.6045L536.056 58.9543C533.284 59.3866 531.287 61.3619 531.6 63.3633C531.912 65.3647 534.415 66.6381 537.187 66.2058L552.252 63.856C555.024 63.4237 557.021 61.4484 556.708 59.447Z" fill="white"/>
<path d="M532.761 40.7944C534.778 40.6071 536.626 42.7224 536.885 45.5159L538.294 60.6981C538.554 63.4916 537.127 65.9108 535.11 66.0981C533.093 66.2853 531.246 64.1701 530.987 61.3765L529.577 46.1943C529.318 43.4008 530.744 40.9816 532.761 40.7944Z" fill="white"/>
<path d="M556.581 38.471C558.039 40.0354 558.01 42.4198 556.517 43.7932L548.405 51.2574C546.912 52.6309 544.517 52.4758 543.059 50.9114C541.601 49.347 541.629 46.9627 543.122 45.5892L551.235 38.125C552.728 36.7516 555.123 36.9066 556.581 38.471Z" fill="white"/>
<path d="M547.554 46.058C549.269 47.3407 549.666 49.6918 548.441 51.3059L541.786 60.0783C540.561 61.6924 538.176 61.9613 536.462 60.6786C534.748 59.3959 534.35 57.0449 535.575 55.4307L542.231 46.6584C543.455 45.0442 545.84 44.7753 547.554 46.058Z" fill="white"/>
<path d="M609.894 202.666C608.655 204.269 609.451 206.962 611.671 208.678L623.734 218.004C625.953 219.72 628.76 219.812 629.999 218.209C631.238 216.607 630.442 213.914 628.223 212.198L616.16 202.872C613.94 201.156 611.133 201.064 609.894 202.666Z" fill="white"/>
<path d="M612.81 232.88C611.287 231.544 611.553 228.748 613.404 226.64L623.461 215.179C625.312 213.071 628.049 212.444 629.572 213.78C631.094 215.116 630.828 217.912 628.977 220.02L618.92 231.481C617.07 233.589 614.332 234.216 612.81 232.88Z" fill="white"/>
<path d="M594.748 217.178C594.882 215.044 596.633 213.425 598.657 213.565L609.655 214.326C611.678 214.466 613.212 216.312 613.078 218.446C612.944 220.581 611.193 222.199 609.169 222.059L598.171 221.298C596.148 221.158 594.614 219.312 594.748 217.178Z" fill="white"/>
<path d="M606.463 218.518C606.216 216.391 607.65 214.487 609.665 214.266L620.611 213.07C622.625 212.85 624.46 214.397 624.706 216.524C624.953 218.65 623.519 220.555 621.505 220.775L610.559 221.972C608.545 222.192 606.71 220.645 606.463 218.518Z" fill="white"/>
<path d="M614.114 36.6758C615.433 35.1378 614.773 32.4078 612.643 30.5821L601.066 20.6597C598.936 18.834 596.137 18.6005 594.819 20.1385C593.501 21.6766 594.16 24.4066 596.29 26.2323L607.867 36.1546C609.997 37.9804 612.796 38.2138 614.114 36.6758Z" fill="white"/>
<path d="M612.726 6.35315C614.179 7.76431 613.772 10.5431 611.818 12.5558L601.196 23.4944C599.241 25.5071 596.475 25.9953 595.022 24.5842C593.569 23.173 593.976 20.3942 595.93 18.3815L606.553 7.44289C608.507 5.43019 611.273 4.94198 612.726 6.35315Z" fill="white"/>
<path d="M629.973 22.9459C629.731 25.0707 627.901 26.5988 625.887 26.3569L614.941 25.0424C612.927 24.8005 611.489 22.8798 611.73 20.755C611.972 18.6302 613.802 17.1021 615.816 17.3439L626.762 18.6585C628.776 18.9003 630.214 20.8211 629.973 22.9459Z" fill="white"/>
<path d="M618.34 21.0169C618.48 23.1533 616.951 24.9833 614.928 25.1016L603.936 25.7449C601.913 25.8633 600.159 24.2255 600.019 22.089C599.88 19.9526 601.409 18.1226 603.431 18.0043L614.424 17.361C616.447 17.2426 618.201 18.8804 618.34 21.0169Z" fill="white"/>
<path d="M642.882 27.8028C644.909 27.8028 646.552 26.1598 646.552 24.1332C646.552 22.1065 644.909 20.4636 642.882 20.4636C640.855 20.4636 639.213 22.1065 639.213 24.1332C639.213 26.1598 640.855 27.8028 642.882 27.8028Z" fill="white"/>
<path d="M581.644 216.26C583.67 216.26 585.313 214.617 585.313 212.59C585.313 210.564 583.67 208.921 581.644 208.921C579.617 208.921 577.974 210.564 577.974 212.59C577.974 214.617 579.617 216.26 581.644 216.26Z" fill="white"/>
<path d="M657.245 33.7484C659.272 33.7484 660.915 32.1055 660.915 30.0788C660.915 28.0522 659.272 26.4092 657.245 26.4092C655.218 26.4092 653.575 28.0522 653.575 30.0788C653.575 32.1055 655.218 33.7484 657.245 33.7484Z" fill="white"/>
<path d="M567.281 210.314C569.308 210.314 570.951 208.671 570.951 206.645C570.951 204.618 569.308 202.975 567.281 202.975C565.254 202.975 563.611 204.618 563.611 206.645C563.611 208.671 565.254 210.314 567.281 210.314Z" fill="white"/>
<path d="M700.546 77.0482C702.573 77.0482 704.216 75.4053 704.216 73.3786C704.216 71.352 702.573 69.709 700.546 69.709C698.52 69.709 696.877 71.352 696.877 73.3786C696.877 75.4053 698.52 77.0482 700.546 77.0482Z" fill="white"/>
<path d="M523.98 167.013C526.006 167.013 527.649 165.37 527.649 163.344C527.649 161.317 526.006 159.674 523.98 159.674C521.953 159.674 520.31 161.317 520.31 163.344C520.31 165.37 521.953 167.013 523.98 167.013Z" fill="white"/>
<path d="M706.491 91.4118C708.518 91.4118 710.161 89.7688 710.161 87.7422C710.161 85.7155 708.518 84.0726 706.491 84.0726C704.464 84.0726 702.822 85.7155 702.822 87.7422C702.822 89.7688 704.464 91.4118 706.491 91.4118Z" fill="white"/>
<path d="M518.035 152.651C520.062 152.651 521.705 151.008 521.705 148.981C521.705 146.955 520.062 145.312 518.035 145.312C516.008 145.312 514.365 146.955 514.365 148.981C514.365 151.008 516.008 152.651 518.035 152.651Z" fill="white"/>
<path d="M706.491 152.65C708.518 152.65 710.161 151.007 710.161 148.981C710.161 146.954 708.518 145.311 706.491 145.311C704.464 145.311 702.822 146.954 702.822 148.981C702.822 151.007 704.464 152.65 706.491 152.65Z" fill="white"/>
<path d="M518.035 91.4121C520.062 91.4121 521.705 89.7691 521.705 87.7425C521.705 85.7158 520.062 84.0729 518.035 84.0729C516.008 84.0729 514.365 85.7158 514.365 87.7425C514.365 89.7691 516.008 91.4121 518.035 91.4121Z" fill="white"/>
<path d="M700.546 167.013C702.573 167.013 704.216 165.37 704.216 163.343C704.216 161.316 702.573 159.673 700.546 159.673C698.52 159.673 696.877 161.316 696.877 163.343C696.877 165.37 698.52 167.013 700.546 167.013Z" fill="white"/>
<path d="M523.98 77.0486C526.006 77.0486 527.649 75.4056 527.649 73.379C527.649 71.3523 526.006 69.7094 523.98 69.7094C521.953 69.7094 520.31 71.3523 520.31 73.379C520.31 75.4056 521.953 77.0486 523.98 77.0486Z" fill="white"/>
<path d="M657.245 210.316C659.272 210.316 660.915 208.673 660.915 206.646C660.915 204.619 659.272 202.977 657.245 202.977C655.218 202.977 653.576 204.619 653.576 206.646C653.576 208.673 655.218 210.316 657.245 210.316Z" fill="white"/>
<path d="M567.281 33.7488C569.308 33.7488 570.951 32.1058 570.951 30.0791C570.951 28.0525 569.308 26.4095 567.281 26.4095C565.254 26.4095 563.611 28.0525 563.611 30.0791C563.611 32.1058 565.254 33.7488 567.281 33.7488Z" fill="white"/>
<path d="M642.882 216.26C644.909 216.26 646.552 214.617 646.552 212.591C646.552 210.564 644.909 208.921 642.882 208.921C640.856 208.921 639.213 210.564 639.213 212.591C639.213 214.617 640.856 216.26 642.882 216.26Z" fill="white"/>
<path d="M581.644 27.8031C583.671 27.8031 585.314 26.1601 585.314 24.1335C585.314 22.1068 583.671 20.4639 581.644 20.4639C579.617 20.4639 577.974 22.1068 577.974 24.1335C577.974 26.1601 579.617 27.8031 581.644 27.8031Z" fill="white"/>
<path d="M551.159 176.149C549.156 176.451 547.87 178.948 548.289 181.722L550.563 196.799C550.982 199.573 552.947 201.579 554.95 201.277C556.953 200.975 558.239 198.478 557.821 195.704L555.546 180.627C555.127 177.853 553.162 175.847 551.159 176.149Z" fill="white"/>
<path d="M532.388 200.003C532.211 197.985 534.335 196.148 537.13 195.903L552.319 194.569C555.114 194.323 557.526 195.762 557.703 197.78C557.88 199.798 555.756 201.635 552.961 201.88L537.772 203.214C534.977 203.459 532.565 202.021 532.388 200.003Z" fill="white"/>
<path d="M530.183 176.172C531.755 174.722 534.139 174.762 535.505 176.262L542.929 184.412C544.295 185.911 544.128 188.305 542.556 189.755C540.984 191.206 538.6 191.165 537.234 189.666L529.811 181.516C528.445 180.016 528.611 177.622 530.183 176.172Z" fill="white"/>
<path d="M537.725 185.236C539.016 183.528 541.369 183.143 542.977 184.375L551.716 191.074C553.324 192.307 553.581 194.693 552.29 196.401C550.999 198.109 548.646 198.495 547.038 197.262L538.299 190.563C536.691 189.33 536.434 186.944 537.725 185.236Z" fill="white"/>
<path d="M674.79 62.1533C676.81 61.9972 678.273 59.6003 678.057 56.8031L676.882 41.6009C676.666 38.8037 674.851 36.6603 672.832 36.8164C670.812 36.9725 669.348 39.3694 669.565 42.1666L670.74 57.3687C670.956 60.1659 672.771 62.3094 674.79 62.1533Z" fill="white"/>
<path d="M695.242 39.7236C695.273 41.749 693.021 43.4269 690.216 43.469L674.97 43.6977C672.165 43.7398 669.863 42.1302 669.833 40.1048C669.802 38.0794 672.054 36.4014 674.86 36.3593L690.105 36.1306C692.911 36.0885 695.212 37.6982 695.242 39.7236Z" fill="white"/>
<path d="M695.713 63.6516C694.04 64.9839 691.665 64.7709 690.412 63.1762L683.599 54.5092C682.345 52.9145 682.685 50.5389 684.358 49.2066C686.031 47.8743 688.406 48.0873 689.659 49.682L696.472 58.349C697.726 59.9437 697.386 62.3193 695.713 63.6516Z" fill="white"/>
<path d="M688.848 54.0644C687.437 55.674 685.062 55.888 683.548 54.5419L675.317 47.2266C673.803 45.8806 673.72 43.4819 675.131 41.8723C676.543 40.2627 678.918 40.0487 680.432 41.3948L688.662 48.7101C690.177 50.0561 690.26 52.4548 688.848 54.0644Z" fill="white"/>
<path d="M695.325 119.406C696.894 120.688 699.608 119.965 701.383 117.793L711.033 105.988C712.809 103.816 712.977 101.012 711.408 99.7302C709.84 98.4482 707.126 99.1707 705.351 101.343L695.701 113.148C693.925 115.32 693.757 118.124 695.325 119.406Z" fill="white"/>
<path d="M725.608 117.311C724.231 118.797 721.443 118.455 719.385 116.548L708.202 106.183C706.145 104.276 705.592 101.523 706.969 100.037C708.346 98.5514 711.133 98.8934 713.191 100.8L724.374 111.165C726.432 113.072 726.984 115.826 725.608 117.311Z" fill="white"/>
<path d="M709.421 134.94C707.291 134.748 705.721 132.954 705.916 130.935L706.975 119.962C707.17 117.942 709.057 116.459 711.186 116.651C713.316 116.843 714.887 118.637 714.692 120.657L713.633 131.63C713.438 133.649 711.551 135.132 709.421 134.94Z" fill="white"/>
<path d="M711.078 123.266C708.946 123.455 707.081 121.969 706.915 119.95L706.016 108.975C705.851 106.956 707.447 105.164 709.58 104.975C711.712 104.786 713.577 106.271 713.743 108.291L714.642 119.265C714.808 121.284 713.211 123.077 711.078 123.266Z" fill="white"/>
<path d="M670.088 178.165C670.145 180.19 672.466 181.77 675.271 181.692L690.512 181.268C693.317 181.19 695.547 179.483 695.491 177.458C695.434 175.433 693.113 173.853 690.308 173.931L675.067 174.356C672.262 174.434 670.032 176.14 670.088 178.165Z" fill="white"/>
<path d="M691.482 199.698C689.458 199.629 687.893 197.297 687.989 194.493L688.512 179.254C688.609 176.451 690.33 174.231 692.354 174.301C694.379 174.37 695.944 176.702 695.847 179.506L695.324 194.745C695.228 197.549 693.507 199.768 691.482 199.698Z" fill="white"/>
<path d="M667.56 198.989C666.312 197.252 666.642 194.891 668.296 193.717L677.289 187.34C678.943 186.166 681.299 186.623 682.547 188.359C683.796 190.096 683.466 192.457 681.811 193.631L672.819 200.008C671.164 201.182 668.808 200.725 667.56 198.989Z" fill="white"/>
<path d="M677.474 192.605C675.936 191.116 675.839 188.733 677.258 187.287L684.971 179.428C686.39 177.981 688.79 178.016 690.328 179.506C691.866 180.995 691.962 183.378 690.543 184.824L682.831 192.683C681.412 194.129 679.012 194.094 677.474 192.605Z" fill="white"/>
<path d="M528.619 115.113C526.997 113.9 524.317 114.739 522.637 116.986L513.507 129.198C511.827 131.445 511.781 134.253 513.403 135.466C515.026 136.679 517.706 135.84 519.386 133.593L528.515 121.381C530.195 119.133 530.242 116.325 528.619 115.113Z" fill="white"/>
<path d="M498.456 118.516C499.768 116.973 502.567 117.193 504.706 119.01L516.327 128.88C518.465 130.696 519.137 133.423 517.825 134.967C516.514 136.511 513.714 136.29 511.576 134.474L499.955 124.604C497.816 122.787 497.145 120.06 498.456 118.516Z" fill="white"/>
<path d="M513.864 100.203C516 100.303 517.647 102.027 517.54 104.053L516.957 115.062C516.849 117.088 515.029 118.651 512.892 118.551C510.756 118.452 509.11 116.727 509.217 114.702L509.8 103.693C509.907 101.667 511.728 100.104 513.864 100.203Z" fill="white"/>
<path d="M512.714 111.938C514.836 111.657 516.764 113.061 517.017 115.071L518.39 125.996C518.643 128.006 517.126 129.866 515.003 130.147C512.881 130.428 510.953 129.025 510.7 127.015L509.327 116.089C509.074 114.079 510.591 112.219 512.714 111.938Z" fill="white"/>
<path d="M612 63.2335C609.576 63.2335 607.176 63.7211 604.936 64.6684C602.697 65.6158 600.662 67.0043 598.948 68.7548C597.234 70.5053 595.874 72.5834 594.946 74.8705C594.019 77.1576 593.541 79.6089 593.541 82.0844C593.541 84.56 594.019 87.0113 594.946 89.2984C595.874 91.5855 597.234 93.6636 598.948 95.414C600.662 97.1645 602.697 98.5531 604.936 99.5004C607.176 100.448 609.576 100.935 612 100.935C616.896 100.935 621.591 98.9493 625.052 95.414C628.514 91.8788 630.459 87.084 630.459 82.0844C630.459 77.0848 628.514 72.29 625.052 68.7548C621.591 65.2196 616.896 63.2335 612 63.2335ZM653.574 72.6495C649.899 72.6495 646.374 74.1406 643.775 76.7947C641.176 79.4487 639.716 83.0484 639.716 86.8019C639.716 90.5553 641.176 94.155 643.775 96.8091C646.374 99.4632 649.899 100.954 653.574 100.954C657.249 100.954 660.774 99.4632 663.373 96.8091C665.972 94.155 667.432 90.5553 667.432 86.8019C667.432 83.0484 665.972 79.4487 663.373 76.7947C660.774 74.1406 657.249 72.6495 653.574 72.6495ZM570.426 72.6495C566.751 72.6495 563.226 74.1406 560.627 76.7947C558.028 79.4487 556.568 83.0484 556.568 86.8019C556.568 90.5553 558.028 94.155 560.627 96.8091C563.226 99.4632 566.751 100.954 570.426 100.954C574.101 100.954 577.626 99.4632 580.225 96.8091C582.824 94.155 584.284 90.5553 584.284 86.8019C584.284 83.0484 582.824 79.4487 580.225 76.7947C577.626 74.1406 574.101 72.6495 570.426 72.6495ZM584.284 119.758C584.301 117.267 585.282 114.884 587.013 113.129C588.743 111.374 591.084 110.389 593.523 110.389H630.477C632.928 110.389 635.277 111.383 637.01 113.153C638.743 114.922 639.716 117.322 639.716 119.824V148.129C639.715 151.098 639.26 154.049 638.367 156.875C636.321 163.278 632.107 168.727 626.482 172.243C620.856 175.759 614.187 177.112 607.673 176.059C601.158 175.005 595.225 171.614 590.938 166.495C586.652 161.376 584.292 154.864 584.284 148.129V119.758ZM575.045 119.824C575.045 116.38 575.941 113.163 577.521 110.389H556.568C554.118 110.389 551.768 111.383 550.035 113.153C548.303 114.922 547.329 117.322 547.329 119.824V143.411C547.328 147.273 548.255 151.076 550.03 154.486C551.804 157.897 554.371 160.81 557.505 162.97C560.64 165.131 564.245 166.472 568.006 166.877C571.767 167.281 575.567 166.737 579.073 165.291C576.414 159.975 575.034 154.089 575.045 148.119V119.824ZM648.955 119.824V148.129C648.955 154.309 647.504 160.139 644.927 165.291C648.433 166.737 652.233 167.281 655.994 166.877C659.755 166.472 663.36 165.131 666.495 162.97C669.629 160.81 672.196 157.897 673.97 154.486C675.745 151.076 676.672 147.273 676.671 143.411V119.824C676.671 117.322 675.697 114.922 673.965 113.153C672.232 111.383 669.882 110.389 667.432 110.389H646.479C648.049 113.163 648.955 116.38 648.955 119.824Z" fill="white"/>
</svg>
