<svg width="334" height="334" viewBox="0 0 334 334" fill="none" xmlns="http://www.w3.org/2000/svg">
<path d="M90.0523 82.7304C89.6179 79.9451 86.1344 78.1729 82.2766 78.7746L61.3107 82.0447C57.453 82.6464 54.6746 85.3952 55.1091 88.1806C55.5435 90.9659 59.027 92.7381 62.8847 92.1364L83.8506 88.8663C87.7084 88.2646 90.4867 85.5157 90.0523 82.7304Z" fill="#002B5B"/>
<path d="M56.7258 56.7722C59.5327 56.5116 62.1037 59.4553 62.4647 63.3429L64.4262 84.4715C64.7871 88.3592 62.802 91.7259 59.9951 91.9865C57.1881 92.247 54.6171 89.3033 54.2562 85.4157L52.2947 64.2871C51.9337 60.3995 53.9189 57.0328 56.7258 56.7722Z" fill="#002B5B"/>
<path d="M89.8745 53.5388C91.9035 55.716 91.8641 59.0342 89.7867 60.9455L78.4961 71.3333C76.4187 73.2446 73.086 73.0289 71.057 70.8517C69.0281 68.6746 69.0674 65.3564 71.1449 63.445L82.4354 53.0573C84.5129 51.146 87.8456 51.3617 89.8745 53.5388Z" fill="#002B5B"/>
<path d="M77.313 64.0974C79.6986 65.8825 80.2515 69.1544 78.5472 71.4007L69.285 83.6089C67.5807 85.8552 64.2615 86.2295 61.8759 84.4444C59.4904 82.6593 58.9375 79.3874 60.6417 77.1411L69.904 64.9329C71.6082 62.6866 74.9275 62.3123 77.313 64.0974Z" fill="#002B5B"/>
<path d="M164.07 282.044C162.345 284.274 163.453 288.022 166.542 290.41L183.329 303.389C186.418 305.777 190.324 305.905 192.049 303.675C193.773 301.444 192.665 297.696 189.576 295.308L172.789 282.33C169.7 279.941 165.794 279.813 164.07 282.044Z" fill="#002B5B"/>
<path d="M168.127 324.091C166.008 322.232 166.378 318.341 168.954 315.407L182.95 299.458C185.525 296.523 189.335 295.651 191.454 297.51C193.573 299.369 193.202 303.26 190.627 306.195L176.631 322.144C174.055 325.078 170.246 325.951 168.127 324.091Z" fill="#002B5B"/>
<path d="M142.991 302.239C143.178 299.269 145.615 297.017 148.431 297.212L163.736 298.271C166.553 298.466 168.687 301.034 168.501 304.005C168.314 306.975 165.877 309.227 163.061 309.032L147.755 307.973C144.939 307.778 142.805 305.21 142.991 302.239Z" fill="#002B5B"/>
<path d="M159.295 304.104C158.951 301.145 160.947 298.494 163.75 298.187L178.984 296.522C181.787 296.216 184.34 298.369 184.684 301.329C185.027 304.288 183.031 306.939 180.228 307.245L164.994 308.911C162.192 309.217 159.638 307.064 159.295 304.104Z" fill="#002B5B"/>
<path d="M169.942 51.0405C171.777 48.9001 170.86 45.1008 167.895 42.56L151.784 28.7514C148.819 26.2107 144.924 25.8857 143.09 28.0262C141.255 30.1666 142.172 33.9658 145.137 36.5066L161.249 50.3152C164.213 52.856 168.108 53.1809 169.942 51.0405Z" fill="#002B5B"/>
<path d="M168.01 8.84149C170.033 10.8054 169.467 14.6725 166.747 17.4735L151.964 32.6964C149.244 35.4974 145.395 36.1768 143.373 34.213C141.35 32.2491 141.916 28.382 144.637 25.5809L159.419 10.3581C162.139 7.55704 165.988 6.87762 168.01 8.84149Z" fill="#002B5B"/>
<path d="M192.012 31.933C191.676 34.89 189.129 37.0167 186.326 36.6801L171.093 34.8507C168.29 34.5141 166.288 31.841 166.624 28.884C166.96 25.927 169.508 23.8004 172.31 24.137L187.543 25.9664C190.346 26.303 192.348 28.976 192.012 31.933Z" fill="#002B5B"/>
<path d="M175.823 29.2485C176.017 32.2217 173.89 34.7684 171.075 34.9331L155.777 35.8284C152.962 35.9931 150.521 33.7138 150.327 30.7406C150.133 27.7674 152.26 25.2207 155.075 25.056L170.373 24.1607C173.188 23.9959 175.63 26.2753 175.823 29.2485Z" fill="#002B5B"/>
<path d="M209.977 38.6922C212.798 38.6922 215.084 36.4058 215.084 33.5853C215.084 30.7649 212.798 28.4785 209.977 28.4785C207.157 28.4785 204.87 30.7649 204.87 33.5853C204.87 36.4058 207.157 38.6922 209.977 38.6922Z" fill="#002B5B"/>
<path d="M124.754 300.962C127.574 300.962 129.861 298.675 129.861 295.855C129.861 293.035 127.574 290.748 124.754 290.748C121.934 290.748 119.647 293.035 119.647 295.855C119.647 298.675 121.934 300.962 124.754 300.962Z" fill="#002B5B"/>
<path d="M229.966 46.9666C232.786 46.9666 235.073 44.6802 235.073 41.8597C235.073 39.0393 232.786 36.7529 229.966 36.7529C227.145 36.7529 224.859 39.0393 224.859 41.8597C224.859 44.6802 227.145 46.9666 229.966 46.9666Z" fill="#002B5B"/>
<path d="M104.766 292.687C107.586 292.687 109.873 290.401 109.873 287.581C109.873 284.76 107.586 282.474 104.766 282.474C101.945 282.474 99.6591 284.76 99.6591 287.581C99.6591 290.401 101.945 292.687 104.766 292.687Z" fill="#002B5B"/>
<path d="M290.227 107.226C293.047 107.226 295.334 104.939 295.334 102.119C295.334 99.2982 293.047 97.0118 290.227 97.0118C287.406 97.0118 285.12 99.2982 285.12 102.119C285.12 104.939 287.406 107.226 290.227 107.226Z" fill="#002B5B"/>
<path d="M44.5051 232.427C47.3255 232.427 49.6119 230.141 49.6119 227.32C49.6119 224.5 47.3255 222.213 44.5051 222.213C41.6846 222.213 39.3982 224.5 39.3982 227.32C39.3982 230.141 41.6846 232.427 44.5051 232.427Z" fill="#002B5B"/>
<path d="M298.5 127.215C301.32 127.215 303.607 124.928 303.607 122.108C303.607 119.287 301.32 117.001 298.5 117.001C295.679 117.001 293.393 119.287 293.393 122.108C293.393 124.928 295.679 127.215 298.5 127.215Z" fill="#002B5B"/>
<path d="M36.2318 212.439C39.0522 212.439 41.3387 210.153 41.3387 207.332C41.3387 204.512 39.0522 202.226 36.2318 202.226C33.4114 202.226 31.1249 204.512 31.1249 207.332C31.1249 210.153 33.4114 212.439 36.2318 212.439Z" fill="#002B5B"/>
<path d="M298.5 212.438C301.32 212.438 303.607 210.152 303.607 207.331C303.607 204.511 301.32 202.224 298.5 202.224C295.679 202.224 293.393 204.511 293.393 207.331C293.393 210.152 295.679 212.438 298.5 212.438Z" fill="#002B5B"/>
<path d="M36.2318 127.215C39.0522 127.215 41.3387 124.929 41.3387 122.108C41.3387 119.288 39.0522 117.001 36.2318 117.001C33.4114 117.001 31.1249 119.288 31.1249 122.108C31.1249 124.929 33.4114 127.215 36.2318 127.215Z" fill="#002B5B"/>
<path d="M290.227 232.426C293.047 232.426 295.334 230.139 295.334 227.319C295.334 224.498 293.047 222.212 290.227 222.212C287.407 222.212 285.12 224.498 285.12 227.319C285.12 230.139 287.407 232.426 290.227 232.426Z" fill="#002B5B"/>
<path d="M44.5051 107.226C47.3255 107.226 49.6119 104.94 49.6119 102.119C49.6119 99.2986 47.3255 97.0122 44.5051 97.0122C41.6846 97.0122 39.3982 99.2986 39.3982 102.119C39.3982 104.94 41.6846 107.226 44.5051 107.226Z" fill="#002B5B"/>
<path d="M229.966 292.689C232.786 292.689 235.073 290.403 235.073 287.583C235.073 284.762 232.786 282.476 229.966 282.476C227.145 282.476 224.859 284.762 224.859 287.583C224.859 290.403 227.145 292.689 229.966 292.689Z" fill="#002B5B"/>
<path d="M104.766 46.967C107.586 46.967 109.873 44.6806 109.873 41.8602C109.873 39.0397 107.586 36.7533 104.766 36.7533C101.945 36.7533 99.6591 39.0397 99.6591 41.8602C99.6591 44.6806 101.945 46.967 104.766 46.967Z" fill="#002B5B"/>
<path d="M209.978 300.962C212.798 300.962 215.085 298.676 215.085 295.855C215.085 293.035 212.798 290.749 209.978 290.749C207.157 290.749 204.871 293.035 204.871 295.855C204.871 298.676 207.157 300.962 209.978 300.962Z" fill="#002B5B"/>
<path d="M124.754 38.6926C127.575 38.6926 129.861 36.4062 129.861 33.5857C129.861 30.7653 127.575 28.4789 124.754 28.4789C121.934 28.4789 119.647 30.7653 119.647 33.5857C119.647 36.4062 121.934 38.6926 124.754 38.6926Z" fill="#002B5B"/>
<path d="M82.33 245.141C79.5425 245.561 77.753 249.036 78.3354 252.896L81.501 273.878C82.0834 277.739 84.8184 280.531 87.6059 280.11C90.3933 279.69 92.1829 276.215 91.6004 272.355L88.4349 251.373C87.8524 247.512 85.1174 244.72 82.33 245.141Z" fill="#002B5B"/>
<path d="M56.2061 278.337C55.9595 275.529 58.916 272.973 62.8054 272.631L83.9435 270.775C87.8329 270.434 91.1896 272.435 91.4362 275.244C91.6828 278.052 88.7263 280.608 84.8369 280.95L63.6989 282.806C59.8095 283.147 56.4527 281.145 56.2061 278.337Z" fill="#002B5B"/>
<path d="M53.1382 245.173C55.3254 243.155 58.6434 243.21 60.5443 245.297L70.8756 256.64C72.7766 258.727 72.5443 262.058 70.357 264.076C68.1698 266.094 64.8518 266.038 62.9509 263.951L52.6196 252.609C50.7186 250.522 50.9509 247.191 53.1382 245.173Z" fill="#002B5B"/>
<path d="M63.6339 257.787C65.4309 255.41 68.7055 254.873 70.9433 256.589L83.1052 265.912C85.343 267.627 85.7007 270.948 83.9037 273.325C82.1067 275.702 78.8321 276.238 76.5944 274.523L64.4324 265.2C62.1947 263.484 61.8369 260.163 63.6339 257.787Z" fill="#002B5B"/>
<path d="M254.383 86.4966C257.194 86.2794 259.23 82.9437 258.93 79.0509L257.294 57.8946C256.993 54.0019 254.468 51.0189 251.657 51.2361C248.847 51.4534 246.81 54.7891 247.111 58.6819L248.746 79.8382C249.047 83.7309 251.572 86.7139 254.383 86.4966Z" fill="#002B5B"/>
<path d="M282.846 55.2819C282.888 58.1006 279.754 60.4358 275.85 60.4943L254.633 60.8126C250.729 60.8712 247.526 58.6311 247.484 55.8124C247.442 52.9938 250.576 50.6586 254.48 50.6001L275.697 50.2818C279.601 50.2232 282.803 52.4633 282.846 55.2819Z" fill="#002B5B"/>
<path d="M283.5 88.5817C281.173 90.4358 277.867 90.1394 276.123 87.9201L266.641 75.8585C264.897 73.6392 265.37 70.3332 267.698 68.4791C270.026 66.625 273.331 66.9214 275.076 69.1407L284.557 81.2023C286.302 83.4216 285.828 86.7276 283.5 88.5817Z" fill="#002B5B"/>
<path d="M273.947 75.2396C271.983 77.4796 268.678 77.7773 266.57 75.9041L255.117 65.7237C253.009 63.8504 252.893 60.5122 254.858 58.2721C256.822 56.0321 260.127 55.7344 262.235 57.6076L273.688 67.7881C275.796 69.6613 275.912 72.9996 273.947 75.2396Z" fill="#002B5B"/>
<path d="M282.962 166.173C285.144 167.957 288.921 166.952 291.392 163.929L304.821 147.5C307.292 144.477 307.526 140.575 305.344 138.791C303.161 137.007 299.384 138.012 296.913 141.035L283.484 157.464C281.013 160.487 280.779 164.389 282.962 166.173Z" fill="#002B5B"/>
<path d="M325.104 163.258C323.188 165.326 319.308 164.85 316.445 162.196L300.882 147.772C298.018 145.118 297.249 141.286 299.165 139.218C301.081 137.151 304.961 137.627 307.824 140.281L323.388 154.705C326.251 157.359 327.02 161.191 325.104 163.258Z" fill="#002B5B"/>
<path d="M302.578 187.792C299.614 187.525 297.429 185.027 297.7 182.218L299.174 166.946C299.445 164.137 302.071 162.073 305.035 162.34C307.999 162.607 310.184 165.104 309.913 167.914L308.439 183.185C308.168 185.995 305.542 188.058 302.578 187.792Z" fill="#002B5B"/>
<path d="M304.885 171.545C301.917 171.808 299.321 169.74 299.091 166.93L297.839 151.657C297.609 148.847 299.831 146.353 302.799 146.09C305.767 145.827 308.362 147.894 308.592 150.704L309.844 165.977C310.074 168.788 307.852 171.282 304.885 171.545Z" fill="#002B5B"/>
<path d="M247.839 247.946C247.918 250.764 251.149 252.963 255.052 252.855L276.263 252.264C280.166 252.155 283.27 249.78 283.191 246.962C283.113 244.144 279.882 241.946 275.979 242.054L254.768 242.645C250.865 242.753 247.761 245.129 247.839 247.946Z" fill="#002B5B"/>
<path d="M277.613 277.914C274.795 277.817 272.618 274.571 272.751 270.669L273.48 249.462C273.614 245.56 276.009 242.472 278.826 242.569C281.644 242.665 283.821 245.911 283.687 249.813L282.959 271.02C282.825 274.922 280.43 278.01 277.613 277.914Z" fill="#002B5B"/>
<path d="M244.321 276.926C242.584 274.509 243.043 271.223 245.346 269.59L257.86 260.714C260.163 259.081 263.441 259.717 265.178 262.134C266.916 264.55 266.457 267.837 264.154 269.47L251.64 278.345C249.337 279.978 246.058 279.342 244.321 276.926Z" fill="#002B5B"/>
<path d="M258.118 268.042C255.978 265.969 255.843 262.654 257.818 260.641L268.551 249.703C270.526 247.691 273.866 247.74 276.006 249.812C278.146 251.885 278.281 255.2 276.306 257.213L265.573 268.151C263.598 270.163 260.258 270.115 258.118 268.042Z" fill="#002B5B"/>
<path d="M50.9619 160.198C48.7041 158.51 44.9743 159.679 42.6365 162.806L29.9312 179.801C27.5934 182.928 27.5284 186.836 29.7862 188.524C32.044 190.212 35.7738 189.044 38.1116 185.916L50.817 168.921C53.1548 165.794 53.2197 161.886 50.9619 160.198Z" fill="#002B5B"/>
<path d="M8.98508 164.935C10.81 162.787 14.7062 163.094 17.6821 165.622L33.8553 179.358C36.8312 181.886 37.7653 185.681 35.9405 187.829C34.1156 189.978 30.2193 189.671 27.2434 187.143L11.0702 173.407C8.09434 170.879 7.1602 167.084 8.98508 164.935Z" fill="#002B5B"/>
<path d="M30.4274 139.45C33.4002 139.588 35.6918 141.988 35.5425 144.807L34.7312 160.128C34.5819 162.947 32.0481 165.122 29.0753 164.984C26.1025 164.846 23.8109 162.446 23.9602 159.627L24.7715 144.306C24.9208 141.487 27.4546 139.311 30.4274 139.45Z" fill="#002B5B"/>
<path d="M28.8267 155.781C31.7804 155.39 34.4631 157.343 34.8148 160.14L36.7265 175.345C37.0783 178.142 34.9665 180.73 32.0129 181.122C29.0592 181.513 26.3765 179.56 26.0247 176.762L24.113 161.558C23.7613 158.76 25.873 156.172 28.8267 155.781Z" fill="#002B5B"/>
<path d="M167 87.9999C163.627 87.9999 160.286 88.6785 157.169 89.9969C154.053 91.3153 151.221 93.2477 148.835 95.6838C146.45 98.1198 144.558 101.012 143.267 104.195C141.976 107.378 141.311 110.789 141.311 114.234C141.311 117.679 141.976 121.091 143.267 124.274C144.558 127.456 146.45 130.348 148.835 132.785C151.221 135.221 154.053 137.153 157.169 138.471C160.286 139.79 163.627 140.468 167 140.468C173.813 140.468 180.347 137.704 185.165 132.785C189.982 127.865 192.689 121.192 192.689 114.234C192.689 107.276 189.982 100.604 185.165 95.6838C180.347 90.7639 173.813 87.9999 167 87.9999ZM224.857 101.104C219.742 101.104 214.837 103.179 211.22 106.873C207.603 110.566 205.571 115.576 205.571 120.799C205.571 126.023 207.603 131.032 211.22 134.726C214.837 138.42 219.742 140.495 224.857 140.495C229.972 140.495 234.877 138.42 238.494 134.726C242.111 131.032 244.143 126.023 244.143 120.799C244.143 115.576 242.111 110.566 238.494 106.873C234.877 103.179 229.972 101.104 224.857 101.104ZM109.143 101.104C104.028 101.104 99.1226 103.179 95.5058 106.873C91.889 110.566 89.8571 115.576 89.8571 120.799C89.8571 126.023 91.889 131.032 95.5058 134.726C99.1226 138.42 104.028 140.495 109.143 140.495C114.258 140.495 119.163 138.42 122.78 134.726C126.397 131.032 128.429 126.023 128.429 120.799C128.429 115.576 126.397 110.566 122.78 106.873C119.163 103.179 114.258 101.104 109.143 101.104ZM128.429 166.663C128.452 163.197 129.817 159.881 132.226 157.438C134.635 154.996 137.891 153.625 141.286 153.625H192.714C196.124 153.625 199.394 155.008 201.806 157.471C204.217 159.933 205.571 163.273 205.571 166.755V206.146C205.571 210.278 204.937 214.385 203.694 218.318C200.847 227.229 194.983 234.812 187.154 239.705C179.325 244.598 170.044 246.481 160.978 245.015C151.912 243.549 143.655 238.83 137.689 231.706C131.724 224.582 128.44 215.52 128.429 206.146V166.663ZM115.571 166.755C115.571 161.963 116.819 157.485 119.017 153.625H89.8571C86.4472 153.625 83.177 155.008 80.7658 157.471C78.3546 159.933 77 163.273 77 166.755V199.581C76.9983 204.955 78.2886 210.247 80.7578 214.993C83.227 219.739 86.7994 223.794 91.1614 226.8C95.5234 229.807 100.541 231.673 105.775 232.237C111.009 232.8 116.297 232.042 121.177 230.03C117.477 222.632 115.555 214.44 115.571 206.133V166.755ZM218.429 166.755V206.146C218.429 214.746 216.41 222.861 212.823 230.03C217.703 232.042 222.991 232.8 228.225 232.237C233.459 231.673 238.477 229.807 242.839 226.8C247.201 223.794 250.773 219.739 253.242 214.993C255.711 210.247 257.002 204.955 257 199.581V166.755C257 163.273 255.645 159.933 253.234 157.471C250.823 155.008 247.553 153.625 244.143 153.625H214.983C217.169 157.485 218.429 161.963 218.429 166.755Z" fill="#002B5B"/>
</svg>
