<svg width="360" height="359" viewBox="0 0 360 359" fill="none" xmlns="http://www.w3.org/2000/svg">
<path d="M97.0624 89.1705C96.5941 86.1684 92.8395 84.2582 88.6814 84.9067L66.0834 88.4314C61.9254 89.0799 58.9308 92.0428 59.399 95.0449C59.8673 98.047 63.6219 99.9572 67.78 99.3087L90.378 95.784C94.536 95.1355 97.5306 92.1726 97.0624 89.1705Z" fill="white"/>
<path d="M61.1415 61.1915C64.1669 60.9107 66.938 64.0835 67.3271 68.2738L69.4413 91.0471C69.8303 95.2374 67.6907 98.8662 64.6652 99.147C61.6398 99.4279 58.8687 96.2551 58.4796 92.0648L56.3654 69.2915C55.9764 65.1012 58.1161 61.4724 61.1415 61.1915Z" fill="white"/>
<path d="M96.8707 57.7065C99.0576 60.0532 99.0152 63.6297 96.776 65.6898L84.6065 76.8861C82.3674 78.9463 78.7752 78.7137 76.5883 76.3671C74.4014 74.0205 74.4439 70.444 76.683 68.3839L88.8525 57.1875C91.0916 55.1274 94.6838 55.3599 96.8707 57.7065Z" fill="white"/>
<path d="M83.3314 69.087C85.9026 71.011 86.4986 74.5376 84.6617 76.9588L74.6784 90.1174C72.8415 92.5386 69.2639 92.942 66.6926 91.0179C64.1214 89.0938 63.5254 85.5673 65.3623 83.1461L75.3456 69.9875C77.1825 67.5663 80.7601 67.1629 83.3314 69.087Z" fill="white"/>
<path d="M176.842 303.999C174.983 306.403 176.177 310.443 179.506 313.017L197.6 327.006C200.93 329.58 205.14 329.718 206.999 327.314C208.857 324.91 207.663 320.87 204.334 318.296L186.24 304.307C182.91 301.733 178.7 301.595 176.842 303.999Z" fill="white"/>
<path d="M181.214 349.32C178.931 347.316 179.33 343.122 182.106 339.959L197.192 322.769C199.967 319.606 204.074 318.665 206.357 320.669C208.641 322.674 208.242 326.867 205.466 330.03L190.38 347.221C187.604 350.384 183.498 351.324 181.214 349.32Z" fill="white"/>
<path d="M154.122 325.767C154.323 322.566 156.95 320.138 159.985 320.348L176.482 321.489C179.518 321.7 181.818 324.468 181.617 327.67C181.416 330.871 178.79 333.299 175.754 333.089L159.257 331.947C156.222 331.737 153.921 328.968 154.122 325.767Z" fill="white"/>
<path d="M171.695 327.777C171.325 324.587 173.476 321.73 176.497 321.4L192.916 319.605C195.938 319.274 198.69 321.595 199.06 324.785C199.43 327.975 197.279 330.832 194.258 331.163L177.838 332.958C174.817 333.288 172.065 330.967 171.695 327.777Z" fill="white"/>
<path d="M183.171 55.0137C185.149 52.7067 184.16 48.6117 180.965 45.8731L163.599 30.9896C160.404 28.251 156.205 27.9008 154.228 30.2079C152.251 32.5149 153.24 36.6099 156.435 39.3485L173.801 54.232C176.996 56.9706 181.194 57.3208 183.171 55.0137Z" fill="white"/>
<path d="M181.089 9.52975C183.269 11.6465 182.659 15.8147 179.727 18.8337L163.793 35.2416C160.862 38.2607 156.713 38.993 154.533 36.8763C152.354 34.7595 152.964 30.5913 155.896 27.5723L171.829 11.1644C174.761 8.14532 178.909 7.41301 181.089 9.52975Z" fill="white"/>
<path d="M206.959 34.4188C206.597 37.606 203.851 39.8982 200.83 39.5354L184.412 37.5636C181.391 37.2008 179.233 34.3196 179.595 31.1325C179.957 27.9453 182.703 25.6531 185.724 26.0159L202.142 27.9877C205.163 28.3505 207.321 31.2316 206.959 34.4188Z" fill="white"/>
<path d="M189.51 31.5253C189.719 34.7299 187.426 37.4749 184.392 37.6525L167.904 38.6174C164.87 38.795 162.238 36.3382 162.029 33.1336C161.82 29.9289 164.113 27.184 167.147 27.0064L183.636 26.0414C186.67 25.8639 189.302 28.3207 189.51 31.5253Z" fill="white"/>
<path d="M226.323 41.7042C229.363 41.7042 231.827 39.2398 231.827 36.1998C231.827 33.1598 229.363 30.6954 226.323 30.6954C223.283 30.6954 220.818 33.1598 220.818 36.1998C220.818 39.2398 223.283 41.7042 226.323 41.7042Z" fill="white"/>
<path d="M134.465 324.39C137.505 324.39 139.97 321.926 139.97 318.886C139.97 315.846 137.505 313.381 134.465 313.381C131.425 313.381 128.961 315.846 128.961 318.886C128.961 321.926 131.425 324.39 134.465 324.39Z" fill="white"/>
<path d="M247.867 50.6228C250.907 50.6228 253.372 48.1584 253.372 45.1184C253.372 42.0784 250.907 39.614 247.867 39.614C244.827 39.614 242.363 42.0784 242.363 45.1184C242.363 48.1584 244.827 50.6228 247.867 50.6228Z" fill="white"/>
<path d="M112.921 315.472C115.961 315.472 118.426 313.007 118.426 309.967C118.426 306.927 115.961 304.463 112.921 304.463C109.881 304.463 107.417 306.927 107.417 309.967C107.417 313.007 109.881 315.472 112.921 315.472Z" fill="white"/>
<path d="M312.819 115.572C315.859 115.572 318.324 113.108 318.324 110.068C318.324 107.028 315.859 104.564 312.819 104.564C309.779 104.564 307.315 107.028 307.315 110.068C307.315 113.108 309.779 115.572 312.819 115.572Z" fill="white"/>
<path d="M47.9695 250.52C51.0095 250.52 53.4739 248.056 53.4739 245.016C53.4739 241.976 51.0095 239.511 47.9695 239.511C44.9295 239.511 42.4651 241.976 42.4651 245.016C42.4651 248.056 44.9295 250.52 47.9695 250.52Z" fill="white"/>
<path d="M321.736 137.118C324.776 137.118 327.241 134.653 327.241 131.613C327.241 128.573 324.776 126.109 321.736 126.109C318.696 126.109 316.232 128.573 316.232 131.613C316.232 134.653 318.696 137.118 321.736 137.118Z" fill="white"/>
<path d="M39.0523 228.977C42.0923 228.977 44.5567 226.512 44.5567 223.472C44.5567 220.432 42.0923 217.968 39.0523 217.968C36.0123 217.968 33.5479 220.432 33.5479 223.472C33.5479 226.512 36.0123 228.977 39.0523 228.977Z" fill="white"/>
<path d="M321.736 228.975C324.776 228.975 327.241 226.511 327.241 223.471C327.241 220.431 324.776 217.966 321.736 217.966C318.696 217.966 316.232 220.431 316.232 223.471C316.232 226.511 318.696 228.975 321.736 228.975Z" fill="white"/>
<path d="M39.0523 137.118C42.0923 137.118 44.5567 134.654 44.5567 131.614C44.5567 128.574 42.0923 126.109 39.0523 126.109C36.0123 126.109 33.5479 128.574 33.5479 131.614C33.5479 134.654 36.0123 137.118 39.0523 137.118Z" fill="white"/>
<path d="M312.82 250.519C315.86 250.519 318.324 248.054 318.324 245.014C318.324 241.974 315.86 239.51 312.82 239.51C309.78 239.51 307.315 241.974 307.315 245.014C307.315 248.054 309.78 250.519 312.82 250.519Z" fill="white"/>
<path d="M47.9695 115.573C51.0095 115.573 53.4739 113.108 53.4739 110.068C53.4739 107.028 51.0095 104.564 47.9695 104.564C44.9295 104.564 42.4651 107.028 42.4651 110.068C42.4651 113.108 44.9295 115.573 47.9695 115.573Z" fill="white"/>
<path d="M247.867 315.474C250.907 315.474 253.372 313.009 253.372 309.969C253.372 306.929 250.907 304.465 247.867 304.465C244.827 304.465 242.363 306.929 242.363 309.969C242.363 313.009 244.827 315.474 247.867 315.474Z" fill="white"/>
<path d="M112.921 50.6232C115.961 50.6232 118.426 48.1588 118.426 45.1188C118.426 42.0788 115.961 39.6144 112.921 39.6144C109.881 39.6144 107.417 42.0788 107.417 45.1188C107.417 48.1588 109.881 50.6232 112.921 50.6232Z" fill="white"/>
<path d="M226.323 324.39C229.363 324.39 231.828 321.926 231.828 318.886C231.828 315.846 229.363 313.382 226.323 313.382C223.283 313.382 220.819 315.846 220.819 318.886C220.819 321.926 223.283 324.39 226.323 324.39Z" fill="white"/>
<path d="M134.466 41.7046C137.506 41.7046 139.97 39.2402 139.97 36.2002C139.97 33.1602 137.506 30.6958 134.466 30.6958C131.426 30.6958 128.961 33.1602 128.961 36.2002C128.961 39.2402 131.426 41.7046 134.466 41.7046Z" fill="white"/>
<path d="M88.7388 264.223C85.7344 264.677 83.8055 268.422 84.4333 272.583L87.8453 295.198C88.4731 299.359 91.421 302.369 94.4254 301.915C97.4299 301.462 99.3587 297.717 98.7309 293.556L95.319 270.941C94.6912 266.779 91.7433 263.77 88.7388 264.223Z" fill="white"/>
<path d="M60.5812 300.004C60.3154 296.977 63.5021 294.222 67.6943 293.854L90.4778 291.853C94.67 291.485 98.288 293.643 98.5538 296.67C98.8196 299.697 95.633 302.452 91.4408 302.82L68.6573 304.821C64.4651 305.189 60.847 303.031 60.5812 300.004Z" fill="white"/>
<path d="M57.2745 264.258C59.632 262.083 63.2082 262.143 65.2572 264.392L76.3927 276.618C78.4417 278.867 78.1912 282.458 75.8337 284.633C73.4762 286.808 69.9 286.748 67.8511 284.499L56.7155 272.273C54.6666 270.024 54.917 266.433 57.2745 264.258Z" fill="white"/>
<path d="M68.5874 277.854C70.5243 275.292 74.0538 274.714 76.4658 276.563L89.5744 286.612C91.9864 288.461 92.372 292.04 90.4352 294.602C88.4983 297.163 84.9688 297.742 82.5568 295.893L69.4482 285.844C67.0362 283.995 66.6506 280.416 68.5874 277.854Z" fill="white"/>
<path d="M274.186 93.2299C277.215 92.9957 279.41 89.4004 279.086 85.2046L277.323 62.4014C276.999 58.2056 274.277 54.9904 271.248 55.2246C268.218 55.4588 266.023 59.0541 266.347 63.2499L268.11 86.0531C268.434 90.2489 271.156 93.4641 274.186 93.2299Z" fill="white"/>
<path d="M304.864 59.5853C304.909 62.6234 301.531 65.1403 297.323 65.2035L274.455 65.5465C270.247 65.6097 266.795 63.1952 266.749 60.1571C266.704 57.119 270.082 54.6021 274.29 54.539L297.158 54.1959C301.366 54.1328 304.818 56.5472 304.864 59.5853Z" fill="white"/>
<path d="M305.57 95.4773C303.061 97.4758 299.498 97.1563 297.618 94.7642L287.398 81.7637C285.518 79.3717 286.028 75.8083 288.537 73.8098C291.046 71.8114 294.608 72.1308 296.489 74.5229L306.708 87.5234C308.589 89.9155 308.079 93.4789 305.57 95.4773Z" fill="white"/>
<path d="M295.273 81.0966C293.155 83.511 289.593 83.8318 287.321 81.8128L274.976 70.8399C272.705 68.8208 272.58 65.2227 274.697 62.8083C276.815 60.3939 280.377 60.073 282.648 62.092L294.994 73.065C297.265 75.084 297.39 78.6822 295.273 81.0966Z" fill="white"/>
<path d="M304.989 179.108C307.341 181.031 311.412 179.948 314.075 176.689L328.55 158.981C331.213 155.723 331.466 151.518 329.113 149.595C326.761 147.672 322.69 148.756 320.027 152.014L305.552 169.722C302.888 172.98 302.636 177.185 304.989 179.108Z" fill="white"/>
<path d="M350.411 175.967C348.346 178.195 344.165 177.682 341.078 174.822L324.303 159.275C321.217 156.414 320.388 152.284 322.454 150.056C324.519 147.827 328.7 148.34 331.787 151.201L348.561 166.747C351.648 169.608 352.477 173.738 350.411 175.967Z" fill="white"/>
<path d="M326.132 202.41C322.937 202.122 320.582 199.431 320.874 196.402L322.463 179.942C322.755 176.914 325.585 174.689 328.78 174.977C331.975 175.264 334.33 177.956 334.038 180.985L332.449 197.445C332.157 200.473 329.327 202.698 326.132 202.41Z" fill="white"/>
<path d="M328.618 184.898C325.419 185.182 322.621 182.954 322.373 179.925L321.024 163.463C320.776 160.434 323.171 157.745 326.37 157.462C329.569 157.179 332.366 159.407 332.614 162.436L333.963 178.898C334.212 181.927 331.817 184.615 328.618 184.898Z" fill="white"/>
<path d="M267.132 267.248C267.217 270.285 270.699 272.655 274.906 272.538L297.769 271.901C301.975 271.784 305.321 269.224 305.236 266.187C305.152 263.15 301.669 260.78 297.462 260.897L274.6 261.533C270.393 261.65 267.048 264.211 267.132 267.248Z" fill="white"/>
<path d="M299.223 299.548C296.187 299.443 293.839 295.945 293.984 291.739L294.768 268.882C294.913 264.676 297.495 261.347 300.531 261.451C303.568 261.556 305.915 265.054 305.771 269.259L304.986 292.117C304.842 296.323 302.26 299.652 299.223 299.548Z" fill="white"/>
<path d="M263.34 298.483C261.468 295.878 261.963 292.336 264.445 290.576L277.933 281.01C280.415 279.249 283.949 279.935 285.821 282.539C287.693 285.144 287.199 288.686 284.717 290.446L271.228 300.013C268.746 301.773 265.213 301.087 263.34 298.483Z" fill="white"/>
<path d="M278.211 288.908C275.904 286.674 275.759 283.1 277.888 280.931L289.456 269.141C291.584 266.972 295.184 267.025 297.491 269.259C299.798 271.493 299.943 275.066 297.815 277.236L286.246 289.025C284.118 291.194 280.518 291.142 278.211 288.908Z" fill="white"/>
<path d="M54.9288 172.669C52.4952 170.85 48.4751 172.109 45.9553 175.479L32.2609 193.797C29.7411 197.168 29.6712 201.38 32.1047 203.199C34.5383 205.019 38.5584 203.76 41.0781 200.389L54.7726 182.071C57.2924 178.7 57.3623 174.488 54.9288 172.669Z" fill="white"/>
<path d="M9.68439 177.775C11.6513 175.459 15.8509 175.79 19.0584 178.515L36.4906 193.32C39.6982 196.045 40.705 200.135 38.7381 202.451C36.7712 204.767 32.5716 204.435 29.3641 201.711L11.9318 186.905C8.72431 184.181 7.71745 180.091 9.68439 177.775Z" fill="white"/>
<path d="M32.7959 150.305C36.0001 150.454 38.4701 153.041 38.3092 156.079L37.4347 172.593C37.2738 175.631 34.5427 177.976 31.3385 177.827C28.1343 177.678 25.6644 175.091 25.8253 172.053L26.6997 155.539C26.8606 152.501 29.5917 150.156 32.7959 150.305Z" fill="white"/>
<path d="M31.0707 167.908C34.2543 167.486 37.1458 169.591 37.5249 172.606L39.5855 188.994C39.9646 192.01 37.6885 194.799 34.5049 195.221C31.3212 195.643 28.4297 193.538 28.0506 190.522L25.9901 174.134C25.6109 171.119 27.887 168.329 31.0707 167.908Z" fill="white"/>
<path d="M180 94.8502C176.364 94.8502 172.763 95.5816 169.404 97.0026C166.045 98.4237 162.992 100.506 160.421 103.132C157.85 105.758 155.811 108.875 154.419 112.306C153.028 115.736 152.312 119.413 152.312 123.127C152.312 126.84 153.028 130.517 154.419 133.948C155.811 137.378 157.85 140.495 160.421 143.121C162.992 145.747 166.045 147.83 169.404 149.251C172.763 150.672 176.364 151.403 180 151.403C187.343 151.403 194.386 148.424 199.578 143.121C204.771 137.818 207.688 130.626 207.688 123.127C207.688 115.627 204.771 108.435 199.578 103.132C194.386 97.8293 187.343 94.8502 180 94.8502ZM242.361 108.974C236.848 108.974 231.561 111.211 227.662 115.192C223.764 119.173 221.574 124.573 221.574 130.203C221.574 135.833 223.764 141.233 227.662 145.214C231.561 149.195 236.848 151.431 242.361 151.431C247.874 151.431 253.161 149.195 257.06 145.214C260.958 141.233 263.148 135.833 263.148 130.203C263.148 124.573 260.958 119.173 257.06 115.192C253.161 111.211 247.874 108.974 242.361 108.974ZM117.639 108.974C112.126 108.974 106.839 111.211 102.94 115.192C99.0419 119.173 96.8519 124.573 96.8519 130.203C96.8519 135.833 99.0419 141.233 102.94 145.214C106.839 149.195 112.126 151.431 117.639 151.431C123.152 151.431 128.439 149.195 132.338 145.214C136.236 141.233 138.426 135.833 138.426 130.203C138.426 124.573 136.236 119.173 132.338 115.192C128.439 111.211 123.152 108.974 117.639 108.974ZM138.426 179.637C138.451 175.901 139.923 172.326 142.519 169.694C145.115 167.061 148.625 165.584 152.284 165.584H207.716C211.391 165.584 214.916 167.075 217.515 169.729C220.114 172.383 221.574 175.983 221.574 179.736V222.193C221.573 226.647 220.89 231.074 219.551 235.312C216.482 244.918 210.161 253.091 201.722 258.365C193.284 263.639 183.281 265.668 173.509 264.088C163.738 262.508 154.838 257.422 148.408 249.743C141.977 242.065 138.438 232.297 138.426 222.193V179.637ZM124.568 179.736C124.568 174.57 125.912 169.744 128.282 165.584H96.8519C93.1765 165.584 89.6517 167.075 87.0528 169.729C84.4539 172.383 82.9939 175.983 82.9939 179.736V215.117C82.992 220.91 84.3828 226.614 87.0442 231.729C89.7056 236.845 93.5561 241.215 98.2577 244.455C102.959 247.696 108.368 249.708 114.009 250.315C119.65 250.922 125.35 250.105 130.61 247.936C126.621 239.962 124.55 231.133 124.568 222.179V179.736ZM235.432 179.736V222.193C235.432 231.463 233.256 240.209 229.39 247.936C234.649 250.105 240.35 250.922 245.991 250.315C251.632 249.708 257.041 247.696 261.742 244.455C266.444 241.215 270.294 236.845 272.956 231.729C275.617 226.614 277.008 220.91 277.006 215.117V179.736C277.006 175.983 275.546 172.383 272.947 169.729C270.348 167.075 266.823 165.584 263.148 165.584H231.718C234.074 169.744 235.432 174.57 235.432 179.736Z" fill="white"/>
</svg>
