<svg width="984" height="334" viewBox="0 0 984 334" fill="none" xmlns="http://www.w3.org/2000/svg">
<path d="M77.44 115.64C77.44 125.347 73.8667 133.24 66.72 139.32C59.5733 145.293 50.08 148.28 38.24 148.28C25.5467 148.28 15.2 146.04 7.2 141.56V116.76C16.9067 123.8 27.2533 127.32 38.24 127.32C41.9733 127.32 45.0667 126.36 47.52 124.44C49.9733 122.413 51.2 119.8 51.2 116.6C51.2 115.533 51.04 114.52 50.72 113.56C50.4 112.6 49.8133 111.693 48.96 110.84C48.1067 109.987 47.2533 109.293 46.4 108.76C45.6533 108.12 44.48 107.427 42.88 106.68C41.3867 105.827 40.1067 105.133 39.04 104.6C37.9733 104.067 36.3733 103.32 34.24 102.36C32.2133 101.4 30.56 100.653 29.28 100.12C22.3467 96.92 16.7467 92.9733 12.48 88.28C8.32 83.5867 6.24 77.3467 6.24 69.56C6.24 60.28 9.65333 52.8133 16.48 47.16C23.3067 41.4 32.7467 38.52 44.8 38.52C55.5733 38.52 64.8533 40.3333 72.64 43.96V67C64 61.9867 55.04 59.48 45.76 59.48C41.6 59.48 38.4 60.3333 36.16 62.04C34.0267 63.7467 32.96 65.9333 32.96 68.6C32.96 71.2667 34.2933 73.6667 36.96 75.8C39.6267 77.8267 43.6267 80.0133 48.96 82.36C52.2667 83.8533 54.9867 85.1867 57.12 86.36C59.36 87.4267 61.8667 88.9733 64.64 91C67.52 92.92 69.76 95 71.36 97.24C73.0667 99.3733 74.5067 102.04 75.68 105.24C76.8533 108.44 77.44 111.907 77.44 115.64ZM152.428 143.16C146.134 146.573 138.561 148.28 129.708 148.28C117.548 148.28 107.521 144.44 99.6275 136.76C91.7342 128.973 87.7875 118.947 87.7875 106.68C88.0008 94.52 91.9475 84.4933 99.6275 76.6C107.308 68.6 117.814 64.6 131.148 64.6C139.361 64.6 146.454 66.1467 152.428 69.24V89.24C146.774 85.72 140.481 83.96 133.548 83.96C127.041 83.96 121.761 85.9333 117.708 89.88C113.654 93.72 111.574 99.32 111.468 106.68C111.894 113.827 114.028 119.373 117.868 123.32C121.708 127.267 126.774 129.24 133.068 129.24C139.788 129.24 146.241 127.373 152.428 123.64V143.16ZM241.188 147H217.828V99C217.828 94.3067 216.654 90.6267 214.308 87.96C211.961 85.2933 208.921 83.96 205.188 83.96C203.588 83.96 202.041 84.2267 200.548 84.76C199.161 85.1867 197.614 86.04 195.908 87.32C194.201 88.4933 192.814 90.5733 191.748 93.56C190.681 96.44 190.148 99.96 190.148 104.12V147H166.788V33.88H190.148V79.64C194.308 69.9333 202.414 65.08 214.468 65.08C222.361 65.08 228.761 67.5867 233.668 72.6C238.681 77.6133 241.188 85.1867 241.188 95.32V147ZM323.28 142.36C317.733 145.987 309.253 147.8 297.84 147.8C284.507 147.8 274.107 143.96 266.64 136.28C259.28 128.493 255.6 118.52 255.6 106.36C255.6 93.4533 259.173 83.3733 266.32 76.12C273.573 68.76 282.48 65.08 293.04 65.08C303.92 65.08 312.507 68.28 318.8 74.68C325.093 80.9733 328.24 90.4133 328.24 103C328.24 105.453 327.813 109.667 326.96 115.64H279.28C280.88 120.12 283.653 123.587 287.6 126.04C291.547 128.493 296.293 129.72 301.84 129.72C310.053 129.72 317.2 127.427 323.28 122.84V142.36ZM294 82.84C290.267 82.84 286.96 84.2267 284.08 87C281.2 89.6667 279.28 93.6667 278.32 99H306.48V97.08C305.733 87.5867 301.573 82.84 294 82.84ZM364.593 106.68C364.593 113.187 366.299 118.467 369.713 122.52C373.126 126.467 377.286 128.44 382.193 128.44C387.526 128.44 391.846 126.36 395.153 122.2C398.459 118.04 400.113 112.493 400.113 105.56C400.113 98.84 398.299 93.6133 394.673 89.88C391.153 86.1467 386.939 84.28 382.033 84.28C377.126 84.28 372.966 86.2533 369.553 90.2C366.246 94.1467 364.593 99.64 364.593 106.68ZM423.472 147H400.113V134.36C394.673 143.427 386.566 147.96 375.793 147.96C365.233 147.96 356.753 143.853 350.353 135.64C344.059 127.427 340.913 117.613 340.913 106.2C340.913 93.4 344.219 83.32 350.833 75.96C357.446 68.6 365.819 64.92 375.953 64.92C386.513 64.92 394.566 69.4 400.113 78.36V33.88H423.472V147ZM516.325 147H492.965V134.04C488.698 143.107 480.485 147.64 468.325 147.64C460.005 147.64 453.498 145.347 448.805 140.76C444.218 136.067 441.925 129.187 441.925 120.12V65.88H465.285V114.84C465.285 124.333 469.445 129.08 477.765 129.08C487.898 129.08 492.965 122.307 492.965 108.76V65.88H516.325V147ZM559.698 147H536.338V33.88H559.698V147ZM643.436 142.36C637.89 145.987 629.41 147.8 617.996 147.8C604.663 147.8 594.263 143.96 586.796 136.28C579.436 128.493 575.756 118.52 575.756 106.36C575.756 93.4533 579.33 83.3733 586.476 76.12C593.73 68.76 602.636 65.08 613.196 65.08C624.076 65.08 632.663 68.28 638.956 74.68C645.25 80.9733 648.396 90.4133 648.396 103C648.396 105.453 647.97 109.667 647.116 115.64H599.436C601.036 120.12 603.81 123.587 607.756 126.04C611.703 128.493 616.45 129.72 621.996 129.72C630.21 129.72 637.356 127.427 643.436 122.84V142.36ZM614.156 82.84C610.423 82.84 607.116 84.2267 604.236 87C601.356 89.6667 599.436 93.6667 598.476 99H626.636V97.08C625.89 87.5867 621.73 82.84 614.156 82.84Z" fill="#002B5B"/>
<path d="M391.284 255.64C391.284 265.347 387.71 273.24 380.564 279.32C373.417 285.293 363.924 288.28 352.084 288.28C339.39 288.28 329.044 286.04 321.044 281.56V256.76C330.75 263.8 341.097 267.32 352.084 267.32C355.817 267.32 358.91 266.36 361.364 264.44C363.817 262.413 365.044 259.8 365.044 256.6C365.044 255.533 364.884 254.52 364.564 253.56C364.244 252.6 363.657 251.693 362.804 250.84C361.95 249.987 361.097 249.293 360.244 248.76C359.497 248.12 358.324 247.427 356.724 246.68C355.23 245.827 353.95 245.133 352.884 244.6C351.817 244.067 350.217 243.32 348.084 242.36C346.057 241.4 344.404 240.653 343.124 240.12C336.19 236.92 330.59 232.973 326.324 228.28C322.164 223.587 320.084 217.347 320.084 209.56C320.084 200.28 323.497 192.813 330.324 187.16C337.15 181.4 346.59 178.52 358.644 178.52C369.417 178.52 378.697 180.333 386.484 183.96V207C377.844 201.987 368.884 199.48 359.604 199.48C355.444 199.48 352.244 200.333 350.004 202.04C347.87 203.747 346.804 205.933 346.804 208.6C346.804 211.267 348.137 213.667 350.804 215.8C353.47 217.827 357.47 220.013 362.804 222.36C366.11 223.853 368.83 225.187 370.964 226.36C373.204 227.427 375.71 228.973 378.484 231C381.364 232.92 383.604 235 385.204 237.24C386.91 239.373 388.35 242.04 389.524 245.24C390.697 248.44 391.284 251.907 391.284 255.64ZM451.071 284.6C442.645 307.32 429.791 318.68 412.511 318.68C409.205 318.68 406.218 318.413 403.551 317.88V299.32C405.258 299.747 407.071 299.96 408.991 299.96C417.845 299.96 424.245 295.213 428.191 285.72L396.831 205.88H422.271L431.071 231.16C433.311 237.667 435.125 243.267 436.511 247.96C438.005 252.653 438.911 255.747 439.231 257.24L439.711 259.48C440.885 255.213 443.765 245.773 448.351 231.16L456.351 205.88H480.351L451.071 284.6ZM565.188 287H541.828V238.68C541.828 233.88 540.708 230.253 538.468 227.8C536.228 225.24 533.081 223.96 529.028 223.96C524.761 223.96 521.188 225.667 518.308 229.08C515.534 232.387 514.148 237.4 514.148 244.12V287H490.788V205.88H514.148V219.64C516.174 215.16 519.268 211.64 523.427 209.08C527.694 206.413 532.761 205.08 538.628 205.08C546.948 205.08 553.454 207.587 558.148 212.6C562.841 217.507 565.188 224.76 565.188 234.36V287ZM644.24 283.16C637.947 286.573 630.373 288.28 621.52 288.28C609.36 288.28 599.333 284.44 591.44 276.76C583.547 268.973 579.6 258.947 579.6 246.68C579.813 234.52 583.76 224.493 591.44 216.6C599.12 208.6 609.627 204.6 622.96 204.6C631.173 204.6 638.267 206.147 644.24 209.24V229.24C638.587 225.72 632.293 223.96 625.36 223.96C618.853 223.96 613.573 225.933 609.52 229.88C605.467 233.72 603.387 239.32 603.28 246.68C603.707 253.827 605.84 259.373 609.68 263.32C613.52 267.267 618.587 269.24 624.88 269.24C631.6 269.24 638.053 267.373 644.24 263.64V283.16Z" fill="#002B5B"/>
<path d="M740.052 82.7304C739.618 79.9451 736.134 78.1729 732.277 78.7746L711.311 82.0447C707.453 82.6464 704.675 85.3952 705.109 88.1806C705.543 90.9659 709.027 92.7381 712.885 92.1364L733.851 88.8663C737.708 88.2646 740.487 85.5157 740.052 82.7304Z" fill="#002B5B"/>
<path d="M706.726 56.7722C709.533 56.5116 712.104 59.4553 712.465 63.3429L714.426 84.4715C714.787 88.3592 712.802 91.7259 709.995 91.9865C707.188 92.247 704.617 89.3033 704.256 85.4157L702.295 64.2871C701.934 60.3995 703.919 57.0328 706.726 56.7722Z" fill="#002B5B"/>
<path d="M739.874 53.5388C741.903 55.716 741.864 59.0342 739.786 60.9455L728.496 71.3333C726.419 73.2446 723.086 73.0289 721.057 70.8517C719.028 68.6746 719.067 65.3564 721.145 63.445L732.435 53.0573C734.513 51.146 737.845 51.3617 739.874 53.5388Z" fill="#002B5B"/>
<path d="M727.313 64.0974C729.698 65.8825 730.251 69.1544 728.547 71.4007L719.285 83.6089C717.581 85.8552 714.261 86.2295 711.876 84.4444C709.49 82.6593 708.937 79.3874 710.642 77.1411L719.904 64.9329C721.608 62.6866 724.927 62.3123 727.313 64.0974Z" fill="#002B5B"/>
<path d="M814.07 282.044C812.345 284.274 813.453 288.022 816.542 290.41L833.329 303.389C836.418 305.777 840.324 305.905 842.049 303.675C843.773 301.444 842.665 297.696 839.576 295.308L822.789 282.33C819.7 279.941 815.794 279.813 814.07 282.044Z" fill="#002B5B"/>
<path d="M818.127 324.091C816.008 322.232 816.379 318.341 818.954 315.407L832.95 299.458C835.526 296.523 839.335 295.651 841.454 297.51C843.573 299.369 843.202 303.26 840.627 306.195L826.631 322.144C824.055 325.078 820.246 325.951 818.127 324.091Z" fill="#002B5B"/>
<path d="M792.991 302.239C793.178 299.269 795.615 297.017 798.431 297.212L813.736 298.271C816.553 298.466 818.687 301.034 818.501 304.005C818.314 306.975 815.877 309.227 813.061 309.032L797.755 307.973C794.939 307.778 792.805 305.21 792.991 302.239Z" fill="#002B5B"/>
<path d="M809.295 304.104C808.951 301.145 810.947 298.494 813.75 298.187L828.984 296.522C831.787 296.216 834.34 298.369 834.684 301.329C835.027 304.288 833.031 306.939 830.228 307.245L814.995 308.911C812.192 309.217 809.638 307.064 809.295 304.104Z" fill="#002B5B"/>
<path d="M819.943 51.0405C821.777 48.9001 820.86 45.1008 817.895 42.56L801.784 28.7514C798.819 26.2107 794.924 25.8857 793.09 28.0262C791.255 30.1666 792.172 33.9658 795.137 36.5066L811.249 50.3152C814.213 52.856 818.108 53.1809 819.943 51.0405Z" fill="#002B5B"/>
<path d="M818.01 8.84149C820.033 10.8054 819.467 14.6725 816.747 17.4735L801.964 32.6964C799.244 35.4974 795.395 36.1768 793.373 34.213C791.35 32.2491 791.917 28.382 794.637 25.5809L809.419 10.3581C812.139 7.55704 815.988 6.87762 818.01 8.84149Z" fill="#002B5B"/>
<path d="M842.012 31.933C841.676 34.89 839.129 37.0167 836.326 36.6801L821.093 34.8507C818.29 34.5141 816.288 31.841 816.624 28.884C816.96 25.927 819.508 23.8004 822.31 24.137L837.543 25.9664C840.346 26.303 842.348 28.976 842.012 31.933Z" fill="#002B5B"/>
<path d="M825.824 29.2485C826.017 32.2217 823.89 34.7684 821.075 34.9331L805.777 35.8284C802.962 35.9931 800.521 33.7138 800.327 30.7406C800.133 27.7674 802.26 25.2207 805.075 25.056L820.373 24.1607C823.188 23.9959 825.63 26.2753 825.824 29.2485Z" fill="#002B5B"/>
<path d="M859.977 38.6922C862.798 38.6922 865.084 36.4058 865.084 33.5853C865.084 30.7649 862.798 28.4785 859.977 28.4785C857.157 28.4785 854.87 30.7649 854.87 33.5853C854.87 36.4058 857.157 38.6922 859.977 38.6922Z" fill="#002B5B"/>
<path d="M774.754 300.962C777.574 300.962 779.861 298.675 779.861 295.855C779.861 293.035 777.574 290.748 774.754 290.748C771.933 290.748 769.647 293.035 769.647 295.855C769.647 298.675 771.933 300.962 774.754 300.962Z" fill="#002B5B"/>
<path d="M879.966 46.9666C882.786 46.9666 885.073 44.6802 885.073 41.8597C885.073 39.0393 882.786 36.7529 879.966 36.7529C877.145 36.7529 874.859 39.0393 874.859 41.8597C874.859 44.6802 877.145 46.9666 879.966 46.9666Z" fill="#002B5B"/>
<path d="M754.766 292.687C757.586 292.687 759.873 290.401 759.873 287.581C759.873 284.76 757.586 282.474 754.766 282.474C751.945 282.474 749.659 284.76 749.659 287.581C749.659 290.401 751.945 292.687 754.766 292.687Z" fill="#002B5B"/>
<path d="M940.227 107.226C943.047 107.226 945.333 104.939 945.333 102.119C945.333 99.2982 943.047 97.0118 940.227 97.0118C937.406 97.0118 935.12 99.2982 935.12 102.119C935.12 104.939 937.406 107.226 940.227 107.226Z" fill="#002B5B"/>
<path d="M694.505 232.427C697.325 232.427 699.612 230.141 699.612 227.32C699.612 224.5 697.325 222.213 694.505 222.213C691.684 222.213 689.398 224.5 689.398 227.32C689.398 230.141 691.684 232.427 694.505 232.427Z" fill="#002B5B"/>
<path d="M948.5 127.215C951.32 127.215 953.607 124.928 953.607 122.108C953.607 119.287 951.32 117.001 948.5 117.001C945.679 117.001 943.393 119.287 943.393 122.108C943.393 124.928 945.679 127.215 948.5 127.215Z" fill="#002B5B"/>
<path d="M686.232 212.439C689.052 212.439 691.339 210.153 691.339 207.332C691.339 204.512 689.052 202.226 686.232 202.226C683.411 202.226 681.125 204.512 681.125 207.332C681.125 210.153 683.411 212.439 686.232 212.439Z" fill="#002B5B"/>
<path d="M948.5 212.438C951.32 212.438 953.607 210.152 953.607 207.331C953.607 204.511 951.32 202.224 948.5 202.224C945.679 202.224 943.393 204.511 943.393 207.331C943.393 210.152 945.679 212.438 948.5 212.438Z" fill="#002B5B"/>
<path d="M686.232 127.215C689.052 127.215 691.339 124.929 691.339 122.108C691.339 119.288 689.052 117.001 686.232 117.001C683.411 117.001 681.125 119.288 681.125 122.108C681.125 124.929 683.411 127.215 686.232 127.215Z" fill="#002B5B"/>
<path d="M940.227 232.426C943.047 232.426 945.334 230.139 945.334 227.319C945.334 224.498 943.047 222.212 940.227 222.212C937.407 222.212 935.12 224.498 935.12 227.319C935.12 230.139 937.407 232.426 940.227 232.426Z" fill="#002B5B"/>
<path d="M694.505 107.226C697.325 107.226 699.612 104.94 699.612 102.119C699.612 99.2986 697.325 97.0122 694.505 97.0122C691.684 97.0122 689.398 99.2986 689.398 102.119C689.398 104.94 691.684 107.226 694.505 107.226Z" fill="#002B5B"/>
<path d="M879.966 292.689C882.786 292.689 885.072 290.403 885.072 287.583C885.072 284.762 882.786 282.476 879.966 282.476C877.145 282.476 874.859 284.762 874.859 287.583C874.859 290.403 877.145 292.689 879.966 292.689Z" fill="#002B5B"/>
<path d="M754.766 46.967C757.586 46.967 759.873 44.6806 759.873 41.8602C759.873 39.0397 757.586 36.7533 754.766 36.7533C751.945 36.7533 749.659 39.0397 749.659 41.8602C749.659 44.6806 751.945 46.967 754.766 46.967Z" fill="#002B5B"/>
<path d="M859.978 300.962C862.798 300.962 865.085 298.676 865.085 295.855C865.085 293.035 862.798 290.749 859.978 290.749C857.157 290.749 854.871 293.035 854.871 295.855C854.871 298.676 857.157 300.962 859.978 300.962Z" fill="#002B5B"/>
<path d="M774.754 38.6926C777.575 38.6926 779.861 36.4062 779.861 33.5857C779.861 30.7653 777.575 28.4789 774.754 28.4789C771.934 28.4789 769.647 30.7653 769.647 33.5857C769.647 36.4062 771.934 38.6926 774.754 38.6926Z" fill="#002B5B"/>
<path d="M732.33 245.141C729.543 245.561 727.753 249.036 728.336 252.896L731.501 273.878C732.084 277.739 734.819 280.531 737.606 280.11C740.393 279.69 742.183 276.215 741.6 272.355L738.435 251.373C737.852 247.512 735.117 244.72 732.33 245.141Z" fill="#002B5B"/>
<path d="M706.206 278.337C705.96 275.529 708.916 272.973 712.805 272.631L733.943 270.775C737.833 270.434 741.19 272.435 741.436 275.244C741.683 278.052 738.726 280.608 734.837 280.95L713.699 282.806C709.809 283.147 706.453 281.145 706.206 278.337Z" fill="#002B5B"/>
<path d="M703.138 245.173C705.325 243.155 708.643 243.21 710.544 245.297L720.876 256.64C722.776 258.727 722.544 262.058 720.357 264.076C718.17 266.094 714.852 266.038 712.951 263.951L702.619 252.609C700.718 250.522 700.951 247.191 703.138 245.173Z" fill="#002B5B"/>
<path d="M713.634 257.787C715.431 255.41 718.705 254.873 720.943 256.589L733.105 265.912C735.343 267.627 735.701 270.948 733.904 273.325C732.107 275.702 728.832 276.238 726.594 274.523L714.432 265.2C712.195 263.484 711.837 260.163 713.634 257.787Z" fill="#002B5B"/>
<path d="M904.383 86.4966C907.194 86.2794 909.23 82.9437 908.93 79.0509L907.294 57.8946C906.993 54.0019 904.468 51.0189 901.657 51.2361C898.847 51.4534 896.81 54.7891 897.111 58.6819L898.746 79.8382C899.047 83.7309 901.572 86.7139 904.383 86.4966Z" fill="#002B5B"/>
<path d="M932.846 55.2819C932.888 58.1006 929.754 60.4358 925.85 60.4943L904.633 60.8126C900.729 60.8712 897.526 58.6311 897.484 55.8124C897.442 52.9938 900.576 50.6586 904.48 50.6001L925.697 50.2818C929.601 50.2232 932.803 52.4633 932.846 55.2819Z" fill="#002B5B"/>
<path d="M933.501 88.5817C931.173 90.4358 927.868 90.1394 926.123 87.9201L916.641 75.8585C914.897 73.6392 915.37 70.3332 917.698 68.4791C920.026 66.625 923.331 66.9214 925.076 69.1407L934.557 81.2023C936.302 83.4216 935.828 86.7276 933.501 88.5817Z" fill="#002B5B"/>
<path d="M923.947 75.2396C921.983 77.4796 918.678 77.7773 916.57 75.9041L905.117 65.7237C903.009 63.8504 902.893 60.5122 904.858 58.2721C906.822 56.0321 910.127 55.7344 912.235 57.6076L923.689 67.7881C925.796 69.6613 925.912 72.9996 923.947 75.2396Z" fill="#002B5B"/>
<path d="M932.962 166.173C935.144 167.957 938.921 166.952 941.392 163.929L954.821 147.5C957.292 144.477 957.526 140.575 955.344 138.791C953.161 137.007 949.384 138.012 946.913 141.035L933.484 157.464C931.013 160.487 930.779 164.389 932.962 166.173Z" fill="#002B5B"/>
<path d="M975.104 163.258C973.188 165.326 969.308 164.85 966.445 162.196L950.882 147.772C948.018 145.118 947.249 141.286 949.165 139.218C951.081 137.151 954.961 137.627 957.824 140.281L973.388 154.705C976.251 157.359 977.02 161.191 975.104 163.258Z" fill="#002B5B"/>
<path d="M952.578 187.792C949.614 187.525 947.429 185.027 947.7 182.218L949.174 166.946C949.445 164.137 952.071 162.073 955.035 162.34C957.999 162.607 960.184 165.104 959.913 167.914L958.439 183.185C958.168 185.995 955.542 188.058 952.578 187.792Z" fill="#002B5B"/>
<path d="M954.885 171.545C951.917 171.808 949.321 169.74 949.091 166.93L947.839 151.657C947.609 148.847 949.831 146.353 952.799 146.09C955.767 145.827 958.362 147.894 958.592 150.704L959.844 165.977C960.074 168.788 957.852 171.282 954.885 171.545Z" fill="#002B5B"/>
<path d="M897.839 247.946C897.918 250.764 901.149 252.963 905.052 252.855L926.263 252.264C930.166 252.155 933.27 249.78 933.191 246.962C933.113 244.144 929.882 241.946 925.979 242.054L904.768 242.645C900.865 242.753 897.761 245.129 897.839 247.946Z" fill="#002B5B"/>
<path d="M927.613 277.914C924.795 277.817 922.618 274.571 922.752 270.669L923.48 249.462C923.614 245.56 926.009 242.472 928.826 242.569C931.644 242.665 933.821 245.911 933.687 249.813L932.959 271.02C932.825 274.922 930.43 278.01 927.613 277.914Z" fill="#002B5B"/>
<path d="M894.321 276.926C892.584 274.509 893.043 271.223 895.346 269.59L907.86 260.714C910.163 259.081 913.441 259.717 915.178 262.134C916.916 264.55 916.457 267.837 914.154 269.47L901.64 278.345C899.337 279.978 896.058 279.342 894.321 276.926Z" fill="#002B5B"/>
<path d="M908.118 268.042C905.978 265.969 905.843 262.654 907.818 260.641L918.551 249.703C920.526 247.691 923.866 247.74 926.006 249.812C928.146 251.885 928.281 255.2 926.306 257.213L915.573 268.151C913.598 270.163 910.258 270.115 908.118 268.042Z" fill="#002B5B"/>
<path d="M700.962 160.198C698.704 158.51 694.974 159.679 692.636 162.806L679.931 179.801C677.593 182.928 677.528 186.836 679.786 188.524C682.044 190.212 685.774 189.044 688.111 185.916L700.817 168.921C703.155 165.794 703.22 161.886 700.962 160.198Z" fill="#002B5B"/>
<path d="M658.985 164.935C660.81 162.787 664.706 163.094 667.682 165.622L683.855 179.358C686.831 181.886 687.765 185.681 685.94 187.829C684.116 189.978 680.219 189.671 677.243 187.143L661.07 173.407C658.094 170.879 657.16 167.084 658.985 164.935Z" fill="#002B5B"/>
<path d="M680.427 139.45C683.4 139.588 685.692 141.988 685.542 144.807L684.731 160.128C684.582 162.947 682.048 165.122 679.075 164.984C676.102 164.846 673.811 162.446 673.96 159.627L674.771 144.306C674.921 141.487 677.454 139.311 680.427 139.45Z" fill="#002B5B"/>
<path d="M678.827 155.781C681.78 155.39 684.463 157.343 684.815 160.14L686.726 175.345C687.078 178.142 684.966 180.73 682.013 181.122C679.059 181.513 676.376 179.56 676.025 176.762L674.113 161.558C673.761 158.76 675.873 156.172 678.827 155.781Z" fill="#002B5B"/>
<path d="M817 87.9999C813.627 87.9999 810.286 88.6785 807.169 89.9969C804.053 91.3153 801.221 93.2477 798.835 95.6838C796.45 98.1198 794.558 101.012 793.267 104.195C791.976 107.378 791.311 110.789 791.311 114.234C791.311 117.679 791.976 121.091 793.267 124.274C794.558 127.456 796.45 130.348 798.835 132.785C801.221 135.221 804.053 137.153 807.169 138.471C810.286 139.79 813.627 140.468 817 140.468C823.813 140.468 830.347 137.704 835.165 132.785C839.982 127.865 842.689 121.192 842.689 114.234C842.689 107.276 839.982 100.604 835.165 95.6838C830.347 90.7639 823.813 87.9999 817 87.9999ZM874.857 101.104C869.742 101.104 864.837 103.179 861.22 106.873C857.603 110.566 855.571 115.576 855.571 120.799C855.571 126.023 857.603 131.032 861.22 134.726C864.837 138.42 869.742 140.495 874.857 140.495C879.972 140.495 884.877 138.42 888.494 134.726C892.111 131.032 894.143 126.023 894.143 120.799C894.143 115.576 892.111 110.566 888.494 106.873C884.877 103.179 879.972 101.104 874.857 101.104ZM759.143 101.104C754.028 101.104 749.123 103.179 745.506 106.873C741.889 110.566 739.857 115.576 739.857 120.799C739.857 126.023 741.889 131.032 745.506 134.726C749.123 138.42 754.028 140.495 759.143 140.495C764.258 140.495 769.163 138.42 772.78 134.726C776.397 131.032 778.429 126.023 778.429 120.799C778.429 115.576 776.397 110.566 772.78 106.873C769.163 103.179 764.258 101.104 759.143 101.104ZM778.429 166.663C778.452 163.197 779.817 159.881 782.226 157.438C784.635 154.996 787.891 153.625 791.286 153.625H842.714C846.124 153.625 849.394 155.008 851.806 157.471C854.217 159.933 855.571 163.273 855.571 166.755V206.146C855.571 210.278 854.937 214.385 853.694 218.318C850.847 227.229 844.983 234.812 837.154 239.705C829.325 244.598 820.044 246.481 810.978 245.015C801.912 243.549 793.655 238.83 787.689 231.706C781.724 224.582 778.44 215.52 778.429 206.146V166.663ZM765.571 166.755C765.571 161.963 766.819 157.485 769.017 153.625H739.857C736.447 153.625 733.177 155.008 730.766 157.471C728.355 159.933 727 163.273 727 166.755V199.581C726.998 204.955 728.289 210.247 730.758 214.993C733.227 219.739 736.799 223.794 741.161 226.8C745.523 229.807 750.541 231.673 755.775 232.237C761.009 232.8 766.297 232.042 771.177 230.03C767.477 222.632 765.555 214.44 765.571 206.133V166.755ZM868.429 166.755V206.146C868.429 214.746 866.41 222.861 862.823 230.03C867.703 232.042 872.991 232.8 878.225 232.237C883.459 231.673 888.477 229.807 892.839 226.8C897.201 223.794 900.773 219.739 903.242 214.993C905.711 210.247 907.002 204.955 907 199.581V166.755C907 163.273 905.645 159.933 903.234 157.471C900.823 155.008 897.553 153.625 894.143 153.625H864.983C867.169 157.485 868.429 161.963 868.429 166.755Z" fill="#002B5B"/>
</svg>
