<svg width="33" height="33" viewBox="0 0 33 33" fill="none" xmlns="http://www.w3.org/2000/svg">
<path d="M16.25 0C13.0361 0 9.89429 0.953046 7.22199 2.73862C4.54969 4.52419 2.46689 7.06209 1.23696 10.0314C0.00704087 13.0007 -0.314763 16.268 0.312247 19.4202C0.939256 22.5724 2.48692 25.4679 4.75952 27.7405C7.03213 30.0131 9.9276 31.5607 13.0798 32.1878C16.232 32.8148 19.4993 32.493 22.4686 31.263C25.4379 30.0331 27.9758 27.9503 29.7614 25.278C31.547 22.6057 32.5 19.4639 32.5 16.25C32.4955 11.9416 30.7819 7.81102 27.7355 4.76454C24.689 1.71806 20.5584 0.00454972 16.25 0ZM16.25 30C13.5305 30 10.8721 29.1936 8.61092 27.6827C6.34974 26.1718 4.58737 24.0244 3.54666 21.5119C2.50596 18.9994 2.23366 16.2347 2.76421 13.5675C3.29476 10.9003 4.60432 8.45025 6.52729 6.52728C8.45026 4.60431 10.9003 3.29475 13.5675 2.7642C16.2348 2.23366 18.9994 2.50595 21.5119 3.54666C24.0244 4.58736 26.1718 6.34973 27.6827 8.61091C29.1936 10.8721 30 13.5305 30 16.25C29.9959 19.8955 28.5459 23.3904 25.9682 25.9682C23.3904 28.5459 19.8955 29.9959 16.25 30ZM20.8844 15.3656C21.0006 15.4817 21.0928 15.6196 21.1557 15.7713C21.2186 15.9231 21.251 16.0857 21.251 16.25C21.251 16.4143 21.2186 16.5769 21.1557 16.7287C21.0928 16.8804 21.0006 17.0183 20.8844 17.1344L14.6344 23.3844C14.5182 23.5005 14.3804 23.5926 14.2286 23.6555C14.0769 23.7183 13.9143 23.7507 13.75 23.7507C13.5858 23.7507 13.4231 23.7183 13.2714 23.6555C13.1196 23.5926 12.9818 23.5005 12.8656 23.3844C12.7495 23.2682 12.6574 23.1304 12.5945 22.9786C12.5317 22.8269 12.4993 22.6642 12.4993 22.5C12.4993 22.3358 12.5317 22.1731 12.5945 22.0214C12.6574 21.8696 12.7495 21.7318 12.8656 21.6156L18.2328 16.25L12.8656 10.8844C12.6311 10.6498 12.4993 10.3317 12.4993 10C12.4993 9.66829 12.6311 9.35017 12.8656 9.11562C13.1002 8.88107 13.4183 8.7493 13.75 8.7493C14.0817 8.7493 14.3998 8.88107 14.6344 9.11562L20.8844 15.3656Z" fill="#002B5B"/>
</svg>
