<svg width="22" height="22" viewBox="0 0 22 22" fill="none" xmlns="http://www.w3.org/2000/svg">
<mask id="mask0_20_970" style="mask-type:alpha" maskUnits="userSpaceOnUse" x="0" y="0" width="22" height="22">
<rect width="22" height="22" fill="#D9D9D9"/>
</mask>
<g mask="url(#mask0_20_970)">
<path d="M4.58333 17.4166H5.86667L13.7729 9.5104L12.4896 8.22706L4.58333 16.1333V17.4166ZM17.6917 8.18123L13.7958 4.33123L15.0792 3.0479C15.4306 2.69651 15.8622 2.52081 16.374 2.52081C16.8858 2.52081 17.3174 2.69651 17.6687 3.0479L18.9521 4.33123C19.3035 4.68262 19.4868 5.10658 19.5021 5.6031C19.5174 6.09963 19.3493 6.52359 18.9979 6.87498L17.6917 8.18123ZM16.3625 9.53331L6.64583 19.25H2.75V15.3541L12.4667 5.63748L16.3625 9.53331Z" fill="white"/>
</g>
</svg>
