<svg width="22" height="22" viewBox="0 0 22 22" fill="none" xmlns="http://www.w3.org/2000/svg">
<mask id="mask0_99_4064" style="mask-type:alpha" maskUnits="userSpaceOnUse" x="0" y="0" width="22" height="22">
<rect width="22" height="22" fill="#D9D9D9"/>
</mask>
<g mask="url(#mask0_99_4064)">
<path d="M4.58333 21.725C4.07917 21.725 3.64757 21.5455 3.28854 21.1864C2.92951 20.8274 2.75 20.3958 2.75 19.8917V7.05832C2.75 6.55415 2.92951 6.12255 3.28854 5.76353C3.64757 5.4045 4.07917 5.22498 4.58333 5.22498H12.7646L10.9312 7.05832H4.58333V19.8917H17.4167V13.5208L19.25 11.6875V19.8917C19.25 20.3958 19.0705 20.8274 18.7115 21.1864C18.3524 21.5455 17.9208 21.725 17.4167 21.725H4.58333ZM14.8271 5.75207L16.1333 7.0354L10.0833 13.0854V14.3917H11.3667L17.4396 8.31873L18.7458 9.60207L12.1458 16.225H8.25V12.3292L14.8271 5.75207ZM18.7458 9.60207L14.8271 5.75207L17.1187 3.4604C17.4854 3.09373 17.9247 2.9104 18.4365 2.9104C18.9483 2.9104 19.3799 3.09373 19.7312 3.4604L21.0146 4.76665C21.366 5.11804 21.5417 5.54582 21.5417 6.04998C21.5417 6.55415 21.366 6.98193 21.0146 7.33332L18.7458 9.60207Z" fill="white"/>
</g>
</svg>
