<svg width="22" height="25" viewBox="0 0 22 25" fill="none" xmlns="http://www.w3.org/2000/svg">
<path d="M17.4166 4.10668H15.5833V3.08001C15.5833 2.80772 15.4867 2.54659 15.3148 2.35405C15.1429 2.16151 14.9097 2.05334 14.6666 2.05334C14.4235 2.05334 14.1903 2.16151 14.0184 2.35405C13.8465 2.54659 13.7499 2.80772 13.7499 3.08001V4.10668H8.24992V3.08001C8.24992 2.80772 8.15334 2.54659 7.98143 2.35405C7.80953 2.16151 7.57637 2.05334 7.33325 2.05334C7.09014 2.05334 6.85698 2.16151 6.68507 2.35405C6.51316 2.54659 6.41659 2.80772 6.41659 3.08001V4.10668H4.58325C3.85391 4.10668 3.15443 4.43118 2.63871 5.00879C2.12298 5.5864 1.83325 6.36981 1.83325 7.18668V19.5067C1.83325 20.3235 2.12298 21.107 2.63871 21.6846C3.15443 22.2622 3.85391 22.5867 4.58325 22.5867H17.4166C18.1459 22.5867 18.8454 22.2622 19.3611 21.6846C19.8769 21.107 20.1666 20.3235 20.1666 19.5067V7.18668C20.1666 6.36981 19.8769 5.5864 19.3611 5.00879C18.8454 4.43118 18.1459 4.10668 17.4166 4.10668ZM18.3333 19.5067C18.3333 19.779 18.2367 20.0401 18.0648 20.2326C17.8929 20.4252 17.6597 20.5333 17.4166 20.5333H4.58325C4.34014 20.5333 4.10698 20.4252 3.93507 20.2326C3.76316 20.0401 3.66659 19.779 3.66659 19.5067V12.32H18.3333V19.5067ZM18.3333 10.2667H3.66659V7.18668C3.66659 6.91439 3.76316 6.65325 3.93507 6.46071C4.10698 6.26818 4.34014 6.16001 4.58325 6.16001H6.41659V7.18668C6.41659 7.45897 6.51316 7.7201 6.68507 7.91264C6.85698 8.10518 7.09014 8.21334 7.33325 8.21334C7.57637 8.21334 7.80953 8.10518 7.98143 7.91264C8.15334 7.7201 8.24992 7.45897 8.24992 7.18668V6.16001H13.7499V7.18668C13.7499 7.45897 13.8465 7.7201 14.0184 7.91264C14.1903 8.10518 14.4235 8.21334 14.6666 8.21334C14.9097 8.21334 15.1429 8.10518 15.3148 7.91264C15.4867 7.7201 15.5833 7.45897 15.5833 7.18668V6.16001H17.4166C17.6597 6.16001 17.8929 6.26818 18.0648 6.46071C18.2367 6.65325 18.3333 6.91439 18.3333 7.18668V10.2667Z" fill="white"/>
</svg>
